<?xml version="1.0" encoding="UTF-8" standalone="no"?>
<!-- Created with Inkscape (http://www.inkscape.org/) -->

<svg
   xmlns:dc="http://purl.org/dc/elements/1.1/"
   xmlns:cc="http://creativecommons.org/ns#"
   xmlns:rdf="http://www.w3.org/1999/02/22-rdf-syntax-ns#"
   xmlns:svg="http://www.w3.org/2000/svg"
   xmlns="http://www.w3.org/2000/svg"
   xmlns:sodipodi="http://sodipodi.sourceforge.net/DTD/sodipodi-0.dtd"
   xmlns:inkscape="http://www.inkscape.org/namespaces/inkscape"
   sodipodi:docname="lineaarvõrrand.svg"
   width="550.55695"
   height="570.12256"
   id="svg9270"
   version="1.1"
   inkscape:version="0.91 r13725">
  <sodipodi:namedview
     id="base"
     pagecolor="#ffffff"
     bordercolor="#666666"
     borderopacity="1.0"
     inkscape:pageopacity="0.0"
     inkscape:pageshadow="2"
     inkscape:zoom="0.7"
     inkscape:cx="461.33434"
     inkscape:cy="181.55584"
     inkscape:document-units="px"
     inkscape:current-layer="layer1"
     showgrid="false"
     inkscape:window-width="1920"
     inkscape:window-height="1141"
     inkscape:window-x="0"
     inkscape:window-y="0"
     inkscape:window-maximized="1"
     fit-margin-top="0"
     fit-margin-left="0"
     fit-margin-right="0"
     fit-margin-bottom="0" />
  <defs
     id="defs9272">
    <inkscape:perspective
       id="perspective9278"
       inkscape:persp3d-origin="372.04724 : 350.78739 : 1"
       inkscape:vp_z="744.09448 : 526.18109 : 1"
       inkscape:vp_y="0 : 1000 : 0"
       inkscape:vp_x="0 : 526.18109 : 1"
       sodipodi:type="inkscape:persp3d" />
    <inkscape:perspective
       id="perspective9491"
       inkscape:persp3d-origin="0.5 : 0.33333333 : 1"
       inkscape:vp_z="1 : 0.5 : 1"
       inkscape:vp_y="0 : 1000 : 0"
       inkscape:vp_x="0 : 0.5 : 1"
       sodipodi:type="inkscape:persp3d" />
    <inkscape:perspective
       id="perspective9491-2"
       inkscape:persp3d-origin="0.5 : 0.33333333 : 1"
       inkscape:vp_z="1 : 0.5 : 1"
       inkscape:vp_y="0 : 1000 : 0"
       inkscape:vp_x="0 : 0.5 : 1"
       sodipodi:type="inkscape:persp3d" />
    <inkscape:perspective
       id="perspective9491-6"
       inkscape:persp3d-origin="0.5 : 0.33333333 : 1"
       inkscape:vp_z="1 : 0.5 : 1"
       inkscape:vp_y="0 : 1000 : 0"
       inkscape:vp_x="0 : 0.5 : 1"
       sodipodi:type="inkscape:persp3d" />
    <inkscape:perspective
       id="perspective9649"
       inkscape:persp3d-origin="0.5 : 0.33333333 : 1"
       inkscape:vp_z="1 : 0.5 : 1"
       inkscape:vp_y="0 : 1000 : 0"
       inkscape:vp_x="0 : 0.5 : 1"
       sodipodi:type="inkscape:persp3d" />
    <marker
       inkscape:stockid="Arrow1Lend"
       orient="auto"
       refY="0"
       refX="0"
       id="Arrow1Lend"
       style="overflow:visible">
      <path
         id="path4313"
         d="M 0,0 5,-5 -12.5,0 5,5 0,0 Z"
         style="fill-rule:evenodd;stroke:#000000;stroke-width:1pt;marker-start:none"
         transform="matrix(-0.8,0,0,-0.8,-10,0)"
         inkscape:connector-curvature="0" />
    </marker>
    <inkscape:perspective
       id="perspective9683"
       inkscape:persp3d-origin="0.5 : 0.33333333 : 1"
       inkscape:vp_z="1 : 0.5 : 1"
       inkscape:vp_y="0 : 1000 : 0"
       inkscape:vp_x="0 : 0.5 : 1"
       sodipodi:type="inkscape:persp3d" />
    <marker
       inkscape:stockid="Arrow1Lstart"
       orient="auto"
       refY="0"
       refX="0"
       id="Arrow1Lstart"
       style="overflow:visible">
      <path
         id="path4310"
         d="M 0,0 5,-5 -12.5,0 5,5 0,0 Z"
         style="fill-rule:evenodd;stroke:#000000;stroke-width:1pt;marker-start:none"
         transform="matrix(0.8,0,0,0.8,10,0)"
         inkscape:connector-curvature="0" />
    </marker>
  </defs>
  <metadata
     id="metadata9275">
    <rdf:RDF>
      <cc:Work
         rdf:about="">
        <dc:format>image/svg+xml</dc:format>
        <dc:type
           rdf:resource="http://purl.org/dc/dcmitype/StillImage" />
        <dc:title></dc:title>
      </cc:Work>
    </rdf:RDF>
  </metadata>
  <g
     id="layer1"
     inkscape:groupmode="layer"
     inkscape:label="Layer 1"
     transform="translate(7.172732,-5.4995535)">
    <path
       style="fill:none;stroke:#000000;stroke-width:2.02388787;stroke-linecap:butt;stroke-linejoin:miter;stroke-miterlimit:4;stroke-dasharray:none;stroke-opacity:1;marker-start:url(#Arrow1Lstart)"
       d="m 265.13743,9.183085 0,165.021335 0,401.41767"
       id="path5803"
       inkscape:connector-curvature="0" />
    <path
       style="fill:none;stroke:#000000;stroke-width:2;stroke-linecap:butt;stroke-linejoin:round;stroke-miterlimit:4;stroke-dasharray:none;stroke-dashoffset:0;stroke-opacity:1"
       d="m 14.857142,280.07647 499.999998,0 m -250,250 0,-499.999997 M 195.76166,533.71969 c 0.83753,-0.15726 1.67505,-3.57047 2.51257,-3.76885 0.83752,-0.19838 1.67504,-3.52984 2.51256,-3.76884 0.83752,-0.239 1.67504,-3.48983 2.51256,-3.76884 0.83752,-0.27902 1.67504,-3.45052 2.51257,-3.76885 0.83752,-0.31833 1.67504,-3.412 2.51256,-3.76884 0.83752,-0.35684 1.67504,-3.3744 2.51256,-3.76885 0.83752,-0.39445 1.67504,-3.33778 2.51256,-3.76884 0.83752,-0.43106 1.67505,-3.30226 2.51257,-3.76885 0.83752,-0.46658 1.67504,-3.2679 2.51256,-3.76884 0.83752,-0.50093 1.67504,-3.23483 2.51256,-3.76884 0.83752,-0.53402 1.67504,-3.2031 2.51257,-3.76885 0.83752,-0.56575 1.67504,-3.17279 2.51256,-3.76884 0.83752,-0.59606 1.67504,-3.14399 2.51256,-3.76885 0.83752,-0.62485 1.67504,-3.11676 2.51256,-3.76884 0.83752,-0.65208 1.67505,-3.09119 2.51257,-3.76884 0.83752,-0.67766 1.67504,-3.06733 2.51256,-3.76885 0.83752,-0.70152 1.67504,-3.04523 2.51256,-3.76884 0.83752,-0.72362 1.67504,-3.02496 2.51256,-3.76885 0.83753,-0.74388 1.67505,-3.00657 2.51257,-3.76884 0.83752,-0.76228 1.67504,-2.99011 2.51256,-3.76885 0.83752,-0.77874 1.67504,-2.9756 2.51256,-3.76884 0.83752,-0.79324 1.67505,-2.96311 2.51257,-3.76884 0.83752,-0.80574 1.67504,-2.95265 2.51256,-3.76885 0.83752,-0.8162 1.67504,-2.94424 2.51256,-3.76884 0.83752,-0.8246 1.67504,-2.93793 2.51256,-3.76885 0.83753,-0.83092 1.67505,-2.9337 2.51257,-3.76884 0.83752,-0.83514 1.67504,-2.93159 2.51256,-3.76885 0.83752,-0.83725 1.67504,-2.93158 2.51256,-3.76884 0.83752,-0.83726 1.67504,-2.9337 2.51257,-3.76884 0.83752,-0.83515 1.67504,-2.93793 2.51256,-3.76885 0.83752,-0.83092 1.67504,-2.94424 2.51256,-3.76884 0.83752,-0.8246 1.67504,-2.95265 2.51256,-3.76885 0.83753,-0.8162 1.67505,-2.9631 2.51257,-3.76884 0.83752,-0.80574 1.67504,-2.97561 2.51256,-3.76884 0.83752,-0.79324 1.67504,-2.99011 2.51256,-3.76885 0.83752,-0.77874 1.67504,-3.00657 2.51257,-3.76884 0.83752,-0.76228 1.67504,-3.02496 2.51256,-3.76885 0.83752,-0.74388 1.67504,-3.04522 2.51256,-3.76884 0.83752,-0.72362 1.67504,-3.06732 2.51256,-3.76885 0.83752,-0.70152 1.67505,-3.09118 2.51257,-3.76884 0.83752,-0.67766 1.67504,-3.11676 2.51256,-3.76884 0.83752,-0.65208 1.67504,-3.14399 2.51256,-3.76885 0.83752,-0.62485 1.67504,-3.17279 2.51257,-3.76884 0.83752,-0.59606 1.67504,-3.2031 2.51256,-3.76885 0.83752,-0.56575 1.67504,-3.23482 2.51256,-3.76884 0.83752,-0.53402 1.67504,-3.26791 2.51256,-3.76885 0.83752,-0.50093 1.67505,-3.30225 2.51257,-3.76884 0.83752,-0.46659 1.67504,-3.33778 2.51256,-3.76884 0.83752,-0.43107 1.67504,-3.3744 2.51256,-3.76885 0.83752,-0.39445 1.67504,-3.412 2.51257,-3.76884 0.83752,-0.35684 1.67504,-3.45051 2.51256,-3.76885 0.83752,-0.31833 1.67504,-3.48982 2.51256,-3.76884 0.83752,-0.27902 1.67504,-3.52984 2.51256,-3.76885 0.83752,-0.239 1.67505,-3.57046 2.51257,-3.76884 0.83752,-0.19838 1.67504,-3.61159 2.51256,-3.76884 0.83752,-0.15726 1.67504,-3.65311 2.51256,-3.76885 0.83752,-0.11574 1.67504,-3.69491 2.51256,-3.76884 0.83753,-0.0739 1.67505,-3.73692 2.51257,-3.76885 0.83752,-0.0319 1.67504,-3.77899 2.51256,-3.76884 0.83752,0.0101 1.67504,-3.82105 2.51256,-3.76884 0.83752,0.0522 1.67505,-3.86297 2.51257,-3.76885 0.83752,0.0941 1.67504,-3.90465 2.51256,-3.76884 0.83752,0.1358 1.67504,-3.94599 2.51256,-3.76885 0.83752,0.17715 1.67504,-3.98688 2.51256,-3.76884 0.83753,0.21804 1.67505,-4.02723 2.51257,-3.76885 0.83752,0.25839 1.67504,-4.06691 2.51256,-3.76884 0.83752,0.29807 1.67504,-4.10586 2.51256,-3.76884 0.83752,0.33701 1.67504,-4.14395 2.51257,-3.76885 0.83752,0.3751 1.67504,-4.18108 2.51256,-3.76884 0.83752,0.41224 1.67504,-4.21719 2.51256,-3.76885 0.83752,0.44834 1.67504,-4.25215 2.51256,-3.76884 0.83753,0.48331 1.67505,-4.2859 2.51257,-3.76885 0.83752,0.51706 1.67504,-4.31833 2.51256,-3.76884 0.83752,0.5495 1.67504,-4.34939 2.51256,-3.76884 0.83752,0.58055 1.67504,-4.37899 2.51257,-3.76885 0.83752,0.61014 1.67504,-4.40703 2.51256,-3.76884 0.83752,0.63819 1.67504,-4.43347 2.51256,-3.76885 0.83752,0.66463 1.67504,-4.45822 2.51256,-3.76884 0.83752,0.68938 1.67505,-4.48125 2.51257,-3.76884 0.83752,0.7124 1.67504,-4.50247 2.51256,-3.76885 0.83752,0.73362 1.67504,-4.52184 2.51256,-3.76884 0.83752,0.75299 1.67504,-4.53931 2.51257,-3.76885 0.83752,0.77046 1.67504,-4.55482 2.51256,-3.76884 0.83752,0.78598 1.67504,-4.56836 2.51256,-3.76885 0.83752,0.79952 1.67504,-4.57988 2.51256,-3.76884 0.83752,0.81104 1.67505,-4.58935 2.51257,-3.76884 0.83752,0.82051 1.67504,-4.59676 2.51256,-3.76885 0.83752,0.82791 1.67504,-4.60206 2.51256,-3.76884 0.83752,0.83322 1.67504,-4.60527 2.51256,-3.76885 0.83753,0.83643 1.67505,-4.60636 2.51257,-3.76884 0.83752,0.83752 1.67504,-4.60535 2.51256,-3.76885 0.83752,0.83651 1.67504,-4.60221 2.51256,-3.76884 0.83752,0.83337 1.67505,-4.59698 2.51257,-3.76884 0.83752,0.82813 1.67504,-4.58966 2.51256,-3.76885 0.83752,0.82081 1.67504,-4.58025 2.51256,-3.76884 0.83752,0.81141 1.67504,-4.56881 2.51256,-3.76885 0.83753,0.79996 1.67505,-4.55534 2.51257,-3.76884 0.83752,0.78649 1.67504,-4.53989 2.51256,-3.76884 0.83752,0.77104 1.67504,-4.52249 2.51256,-3.76885 0.83752,0.75364 1.67504,-4.50318 2.51257,-3.76884 0.83752,0.73434 1.67504,-4.48203 2.51256,-3.76885 0.83752,0.71319 1.67504,-4.45907 2.51256,-3.76884 0.83752,0.69023 1.67504,-4.43438 2.51256,-3.76885 0.83753,0.66553 1.67505,-4.40799 2.51257,-3.76884 0.83752,0.63915 1.67504,-4.38 2.51256,-3.76884 0.83752,0.61115 1.67504,-4.35047 2.51256,-3.76885 0.83752,0.58162 1.67504,-4.31946 2.51257,-3.76884 0.83752,0.55061 1.67504,-4.28707 2.51256,-3.76885 0.83752,0.51823 1.67504,-4.25336 2.51256,-3.76884 0.83752,0.48452 1.67504,-4.21844 2.51256,-3.76885 0.83752,0.4496 1.67505,-4.18238 2.51257,-3.76884 0.83752,0.41353 1.67504,-4.14527 2.51256,-3.76884 0.83752,0.37643 1.67504,-4.10722 2.51256,-3.76885 0.83752,0.33838 1.67504,-4.06831 2.51257,-3.76884 0.83752,0.29946 1.67504,-4.02865 2.51256,-3.76885 0.83752,0.2598 1.67504,-3.988319 2.51256,-3.768841 0.83752,0.219478 1.67504,-3.947447 2.51256,-3.768844 0.83752,0.178602 1.67505,-3.90612 2.51257,-3.768844 0.83752,0.137275 1.67504,-3.864447 2.51256,-3.768845 0.83752,0.0956 1.67504,-3.822532 2.51256,-3.768844 0.83752,0.05369 1.67504,-3.780482 2.51256,-3.768844 0.83753,0.01164 1.67505,-3.738403 2.51257,-3.768844 0.83752,-0.03044 1.67504,-3.696401 2.51256,-3.768845 0.83752,-0.07244 1.67504,-3.65458 2.51256,-3.768844 0.83752,-0.114263 1.67505,-3.613049 2.51257,-3.768844 0.83752,-0.155794 1.67504,-3.571912 2.51256,-3.768844 0.83752,-0.196933 1.67504,-3.531271 2.51256,-3.768844"
       title="1.5*x-3"
       id="path9427"
       sodipodi:nodetypes="cccccssssssssssssssssssssssssssssssssssssssssssssssssssssssssssssssssssssssssssssssssssssssssssssssssssssssssssssssssssssssssssssssc"
       inkscape:connector-curvature="0" />
    <path
       id="path9443"
       title="-x+2"
       d="m 14.857142,280.07647 499.999998,0 m -250,250 0,-499.999997 m -149.49749,0.502512 c 0.83753,0.82791 1.67505,1.692053 2.51257,2.512563 0.83752,0.82051 1.67504,1.701525 2.51256,2.512563 0.83752,0.811038 1.67504,1.713044 2.51256,2.512563 0.83752,0.799518 1.67504,1.726581 2.51257,2.512562 0.83752,0.785981 1.67504,1.742104 2.51256,2.512563 0.83752,0.770459 1.67504,1.759571 2.51256,2.512563 0.83752,0.752992 1.67504,1.778939 2.51256,2.512563 0.83752,0.733624 1.67505,1.800159 2.51257,2.512563 0.83752,0.712403 1.67504,1.823178 2.51256,2.512562 0.83752,0.689385 1.67504,1.847938 2.51256,2.512563 0.83752,0.664625 1.67504,1.874376 2.51257,2.512563 0.83752,0.638188 1.67504,1.902424 2.51256,2.512563 0.83752,0.610139 1.67504,1.932013 2.51256,2.512563 0.83752,0.58055 1.67504,1.963067 2.51256,2.512563 0.83752,0.549495 1.67505,1.995509 2.51257,2.512562 0.83752,0.517054 1.67504,2.029257 2.51256,2.512563 0.83752,0.483306 1.67504,2.064224 2.51256,2.512563 0.83752,0.448339 1.67504,2.100324 2.51256,2.512563 0.83753,0.412239 1.67505,2.137464 2.51257,2.512563 0.83752,0.375099 1.67504,2.175551 2.51256,2.512562 0.83752,0.337012 1.67504,2.214489 2.51256,2.512563 0.83752,0.298074 1.67505,2.25418 2.51257,2.512563 0.83752,0.258383 1.67504,2.294523 2.51256,2.512563 0.83752,0.21804 1.67504,2.335416 2.51256,2.512563 0.83752,0.177147 1.67504,2.376756 2.51256,2.512563 0.83753,0.135806 1.67505,2.418439 2.51257,2.512562 0.83752,0.09412 1.67504,2.460361 2.51256,2.512563 0.83752,0.0522 1.67504,2.502409 2.51256,2.512559 0.83752,0.0101 1.67504,2.5445 2.51257,2.51257 0.83752,-0.0319 1.67504,2.58649 2.51256,2.51256 0.83752,-0.0739 1.67504,2.6283 2.51256,2.51256 0.83752,-0.11574 1.67504,2.66982 2.51256,2.51256 0.83753,-0.15725 1.67505,2.71095 2.51257,2.51257 0.83752,-0.19838 1.67504,2.75156 2.51256,2.51256 0.83752,-0.239 1.67504,2.79158 2.51256,2.51256 0.83752,-0.27902 1.67504,2.8309 2.51257,2.51257 0.83752,-0.31833 1.67504,2.8694 2.51256,2.51256 0.83752,-0.35684 1.67504,2.90701 2.51256,2.51256 0.83752,-0.39445 1.67504,2.94363 2.51256,2.51257 0.83752,-0.43107 1.67505,2.97915 2.51257,2.51256 0.83752,-0.46659 1.67504,3.0135 2.51256,2.51256 0.83752,-0.50093 1.67504,3.04658 2.51256,2.51256 0.83752,-0.53401 1.67504,3.07832 2.51257,2.51257 0.83752,-0.56575 1.67504,3.10861 2.51256,2.51256 0.83752,-0.59606 1.67504,3.13742 2.51256,2.51256 0.83752,-0.62485 1.67504,3.16464 2.51256,2.51256 0.83752,-0.65207 1.67505,3.19022 2.51257,2.51257 0.83752,-0.67766 1.67504,3.21408 2.51256,2.51256 0.83752,-0.70152 1.67504,3.23618 2.51256,2.51256 0.83752,-0.72361 1.67504,3.25645 2.51256,2.51257 0.83753,-0.74389 1.67505,3.27483 2.51257,2.51256 0.83752,-0.76228 1.67504,3.2913 2.51256,2.51256 0.83752,-0.77874 1.67504,3.3058 2.51256,2.51256 0.83752,-0.79324 1.67505,3.3183 2.51257,2.51257 0.83752,-0.80574 1.67504,3.32876 2.51256,2.51256 0.83752,-0.8162 1.67504,3.33716 2.51256,2.51256 0.83752,-0.8246 1.67504,3.34349 2.51256,2.51257 0.83753,-0.83093 1.67505,3.3477 2.51257,2.51256 0.83752,-0.83514 1.67504,3.34982 2.51256,2.51256 0.83752,-0.83726 1.67504,3.34982 2.51256,2.51256 0.83752,-0.83725 1.67504,3.34771 2.51257,2.51257 0.83752,-0.83515 1.67504,3.34348 2.51256,2.51256 0.83752,-0.83092 1.67504,3.33716 2.51256,2.51256 0.83752,-0.8246 1.67504,3.32876 2.51256,2.51257 0.83753,-0.8162 1.67505,3.31829 2.51257,2.51256 0.83752,-0.80574 1.67504,3.3058 2.51256,2.51256 0.83752,-0.79324 1.67504,3.2913 2.51256,2.51256 0.83752,-0.77874 1.67504,3.27484 2.51257,2.51257 0.83752,-0.76228 1.67504,3.25644 2.51256,2.51256 0.83752,-0.74389 1.67504,3.23618 2.51256,2.51256 0.83752,-0.72361 1.67504,3.21409 2.51256,2.51256 0.83752,-0.70152 1.67505,3.19022 2.51257,2.51257 0.83752,-0.67766 1.67504,3.16464 2.51256,2.51256 0.83752,-0.65208 1.67504,3.13742 2.51256,2.51256 0.83752,-0.62485 1.67504,3.10862 2.51257,2.51257 0.83752,-0.59606 1.67504,3.07831 2.51256,2.51256 0.83752,-0.56575 1.67504,3.04658 2.51256,2.51256 0.83752,-0.53401 1.67504,3.0135 2.51256,2.51256 0.83752,-0.50093 1.67505,2.97916 2.51257,2.51257 0.83752,-0.46659 1.67504,2.94362 2.51256,2.51256 0.83752,-0.43106 1.67504,2.90701 2.51256,2.51256 0.83752,-0.39445 1.67504,2.86941 2.51257,2.51257 0.83752,-0.35685 1.67504,2.83089 2.51256,2.51256 0.83752,-0.31833 1.67504,2.79158 2.51256,2.51256 0.83752,-0.27902 1.67504,2.75157 2.51256,2.51256 0.83752,-0.239 1.67505,2.71095 2.51257,2.51257 0.83752,-0.19838 1.67504,2.66982 2.51256,2.51256 0.83752,-0.15726 1.67504,2.6283 2.51256,2.51256 0.83752,-0.11574 1.67504,2.58649 2.51256,2.51257 0.83753,-0.0739 1.67505,2.54449 2.51257,2.51256 0.83752,-0.0319 1.67504,2.50241 2.51256,2.51256 0.83752,0.0102 1.67504,2.46036 2.51256,2.51256 0.83752,0.0522 1.67505,2.41844 2.51257,2.51257 0.83752,0.0941 1.67504,2.37675 2.51256,2.51256 0.83752,0.13581 1.67504,2.33542 2.51256,2.51256 0.83752,0.17715 1.67504,2.29452 2.51256,2.51257 0.83753,0.21804 1.67505,2.25417 2.51257,2.51256 0.83752,0.25838 1.67504,2.21449 2.51256,2.51256 0.83752,0.29807 1.67504,2.17555 2.51256,2.51256 0.83752,0.33702 1.67504,2.13747 2.51257,2.51257 0.83752,0.3751 1.67504,2.10032 2.51256,2.51256 0.83752,0.41224 1.67504,2.06422 2.51256,2.51256 0.83752,0.44834 1.67504,2.02926 2.51256,2.51257 0.83753,0.4833 1.67505,1.9955 2.51257,2.51256 0.83752,0.51705 1.67504,1.96307 2.51256,2.51256 0.83752,0.5495 1.67504,1.93201 2.51256,2.51256 0.83752,0.58055 1.67504,1.90243 2.51257,2.51257 0.83752,0.61014 1.67504,1.87437 2.51256,2.51256 0.83752,0.63819 1.67504,1.84794 2.51256,2.51256 0.83752,0.66463 1.67504,1.82318 2.51256,2.51256 0.83752,0.68939 1.67505,1.80016 2.51257,2.51257 0.83752,0.7124 1.67504,1.77894 2.51256,2.51256 0.83752,0.73362 1.67504,1.75957 2.51256,2.51256 0.83752,0.753 1.67504,1.74211 2.51257,2.51257 0.83752,0.77046 1.67504,1.72658 2.51256,2.51256 0.83752,0.78598 1.67504,1.71304 2.51256,2.51256 0.83752,0.79952 1.67504,1.70153 2.51256,2.51256 0.83752,0.81104 1.67505,1.69206 2.51257,2.51257 0.83752,0.82051 1.67504,1.68465 2.51256,2.51256 0.83752,0.82791 1.67504,1.67934 2.51256,2.51256 0.83752,0.83322 1.67504,1.67614 2.51256,2.51257 0.83753,0.83642 1.67505,1.67504 2.51257,2.51256 0.83752,0.83752 1.67504,1.67606 2.51256,2.51256 0.83752,0.8365 1.67504,1.6792 2.51256,2.51256 0.83752,0.83337 1.67505,1.68443 2.51257,2.51257 0.83752,0.82813 1.67504,1.69175 2.51256,2.51256 0.83752,0.82081 1.67504,1.70115 2.51256,2.51256 0.83752,0.81141 1.67504,1.7126 2.51256,2.51257 0.83753,0.79996 1.67505,1.72606 2.51257,2.51256 0.83752,0.78649 1.67504,1.74152 2.51256,2.51256 0.83752,0.77104 1.67504,1.75892 2.51256,2.51256 0.83752,0.75365 1.67504,1.77823 2.51257,2.51257 0.83752,0.73434 1.67504,1.79937 2.51256,2.51256 0.83752,0.71318 1.67504,1.82233 2.51256,2.51256 0.83752,0.69023 1.67504,1.84703 2.51256,2.51257 0.83753,0.66553 1.67505,1.87341 2.51257,2.51256 0.83752,0.63915 1.67504,1.9014 2.51256,2.51256 0.83752,0.61116 1.67504,1.93094 2.51256,2.51256 0.83752,0.58163 1.67504,1.96195 2.51257,2.51257 0.83752,0.55061 1.67504,1.99433 2.51256,2.51256 0.83752,0.51822 1.67504,2.02804 2.51256,2.51256 0.83752,0.48452 1.67504,2.06297 2.51256,2.51256 0.83752,0.4496 1.67505,2.09903 2.51257,2.51257 0.83752,0.41353 1.67504,2.13613 2.51256,2.51256 0.83752,0.37643 1.67504,2.17419 2.51256,2.51256 0.83752,0.33838 1.67504,2.2131 2.51257,2.51257 0.83752,0.29946 1.67504,2.25276 2.51256,2.51256 0.83752,0.2598 1.67504,2.29308 2.51256,2.51256 0.83752,0.21948 1.67504,2.33396 2.51256,2.51256 0.83752,0.17861 1.67505,2.37529 2.51257,2.51257 0.83752,0.13727 1.67504,2.41696 2.51256,2.51256 0.83752,0.0956 1.67504,2.45887 2.51256,2.51256 0.83752,0.0537 1.67504,2.50093 2.51256,2.51257 0.83753,0.0116 1.67505,2.543 2.51257,2.51256 0.83752,-0.0304 1.67504,2.58501 2.51256,2.51256 0.83752,-0.0724 1.67504,2.62683 2.51256,2.51256 0.83752,-0.11426 1.67505,2.66836 2.51257,2.51257 0.83752,-0.1558 1.67504,2.70949 2.51256,2.51256 0.83752,-0.19693 1.67504,2.75014 2.51256,2.51256"
       style="fill:none;stroke:#000000;stroke-width:2;stroke-linecap:butt;stroke-linejoin:round;stroke-miterlimit:4;stroke-dasharray:none;stroke-dashoffset:0;stroke-opacity:1"
       sodipodi:nodetypes="cccccssssssssssssssssssssssssssssssssssssssssssssssssssssssssssssssssssssssssssssssssssssssssssssssssssssssssssssssssssssssssssssssssssssssssssssssssssssssssssssssc"
       inkscape:connector-curvature="0" />
    <text
       xml:space="preserve"
       style="font-style:normal;font-weight:normal;font-size:40px;font-family:'Bitstream Vera Sans';fill:#000000;fill-opacity:1;stroke:none"
       x="41.448219"
       y="448.03036"
       id="text9452"
       transform="matrix(0.56520989,-0.82494714,0.82494714,0.56520989,0,0)"><tspan
         sodipodi:role="line"
         id="tspan9454"
         x="41.448219"
         y="448.03036"
         style="font-size:30px">y=1,5x-3</tspan></text>
    <text
       xml:space="preserve"
       style="font-style:normal;font-weight:normal;font-size:40px;font-family:'Bitstream Vera Sans';fill:#000000;fill-opacity:1;stroke:none"
       x="529.90204"
       y="-64.278694"
       id="text9456"
       transform="matrix(0.71816948,0.69586823,-0.69586823,0.71816948,0,0)"><tspan
         sodipodi:role="line"
         id="tspan9458"
         x="529.90204"
         y="-64.278694"
         style="font-size:30px">y=-x+2</tspan></text>
    <circle
       style="fill:#ffffff;fill-opacity:1;stroke:#000000;stroke-width:3;stroke-linecap:butt;stroke-linejoin:round;stroke-miterlimit:4;stroke-dasharray:none;stroke-dashoffset:0;stroke-opacity:1"
       id="path3598-8-2"
       transform="matrix(0.43478261,0,0,0.43478261,315.08588,134.76531)"
       cx="111.42857"
       cy="332.36218"
       r="10" />
    <circle
       style="fill:#ffffff;fill-opacity:1;stroke:#000000;stroke-width:3;stroke-linecap:butt;stroke-linejoin:round;stroke-miterlimit:4;stroke-dasharray:none;stroke-dashoffset:0;stroke-opacity:1"
       id="path3598-8-2-3"
       transform="matrix(0.43478261,0,0,0.43478261,216.09093,35.770357)"
       cx="111.42857"
       cy="332.36218"
       r="10" />
    <circle
       style="fill:#ffffff;fill-opacity:1;stroke:#000000;stroke-width:3;stroke-linecap:butt;stroke-linejoin:round;stroke-miterlimit:4;stroke-dasharray:none;stroke-dashoffset:0;stroke-opacity:1"
       id="path3598-8-2-0"
       transform="matrix(0.43478261,0,0,0.43478261,216.09093,285.27804)"
       cx="111.42857"
       cy="332.36218"
       r="10" />
    <text
       xml:space="preserve"
       style="font-style:normal;font-weight:normal;font-size:40px;font-family:'Bitstream Vera Sans';fill:#000000;fill-opacity:1;stroke:none"
       x="272.61935"
       y="175.22488"
       id="text9617"><tspan
         sodipodi:role="line"
         id="tspan9619"
         x="272.61935"
         y="175.22488"
         style="font-size:30px">(0;2)</tspan></text>
    <text
       xml:space="preserve"
       style="font-style:normal;font-weight:normal;font-size:40px;font-family:'Bitstream Vera Sans';fill:#000000;fill-opacity:1;stroke:none"
       x="272.61935"
       y="437.86456"
       id="text9621"><tspan
         sodipodi:role="line"
         id="tspan9623"
         x="272.61935"
         y="437.86456"
         style="font-size:30px">(0;-3)</tspan></text>
    <text
       xml:space="preserve"
       style="font-style:normal;font-weight:normal;font-size:30px;font-family:'Bitstream Vera Sans';fill:#000000;fill-opacity:1;stroke:none"
       x="376.66507"
       y="273.20969"
       id="text9625"><tspan
         sodipodi:role="line"
         id="tspan9627"
         x="376.66507"
         y="273.20969"
         style="font-size:30px">(2;0)</tspan></text>
    <path
       style="fill:none;stroke:#000000;stroke-width:2;stroke-linecap:butt;stroke-linejoin:miter;stroke-miterlimit:4;stroke-dasharray:none;stroke-opacity:1;marker-end:url(#Arrow1Lend)"
       d="m -7.172732,280.31298 546.916902,0"
       id="path5801"
       inkscape:connector-curvature="0" />
    <text
       xml:space="preserve"
       style="font-style:normal;font-weight:normal;font-size:40px;font-family:'Bitstream Vera Sans';fill:#000000;fill-opacity:1;stroke:none"
       x="494.85721"
       y="316.26852"
       id="text6259"><tspan
         sodipodi:role="line"
         id="tspan6261"
         x="494.85721"
         y="316.26852"
         style="font-style:italic">x</tspan></text>
    <text
       xml:space="preserve"
       style="font-style:normal;font-weight:normal;font-size:40px;font-family:'Bitstream Vera Sans';fill:#000000;fill-opacity:1;stroke:none"
       x="273.16891"
       y="67.157745"
       id="text6263"><tspan
         sodipodi:role="line"
         id="tspan6265"
         x="273.16891"
         y="67.157745"
         style="font-style:italic">y</tspan></text>
  </g>
</svg>
