<?xml version="1.0" encoding="UTF-8" standalone="no"?>
<!-- Created with Inkscape (http://www.inkscape.org/) -->

<svg
   xmlns:dc="http://purl.org/dc/elements/1.1/"
   xmlns:cc="http://creativecommons.org/ns#"
   xmlns:rdf="http://www.w3.org/1999/02/22-rdf-syntax-ns#"
   xmlns:svg="http://www.w3.org/2000/svg"
   xmlns="http://www.w3.org/2000/svg"
   xmlns:sodipodi="http://sodipodi.sourceforge.net/DTD/sodipodi-0.dtd"
   xmlns:inkscape="http://www.inkscape.org/namespaces/inkscape"
   inkscape:version="0.91 r13725"
   version="1.1"
   id="svg9270"
   height="570.35785"
   width="628.98822"
   sodipodi:docname="pöördvõrdeline_seos.svg">
  <sodipodi:namedview
     id="base"
     pagecolor="#ffffff"
     bordercolor="#666666"
     borderopacity="1.0"
     inkscape:pageopacity="0.0"
     inkscape:pageshadow="2"
     inkscape:zoom="0.49497475"
     inkscape:cx="-117.22277"
     inkscape:cy="91.814117"
     inkscape:document-units="px"
     inkscape:current-layer="layer1"
     showgrid="false"
     inkscape:window-width="1920"
     inkscape:window-height="1141"
     inkscape:window-x="0"
     inkscape:window-y="0"
     inkscape:window-maximized="1"
     fit-margin-top="0"
     fit-margin-left="0"
     fit-margin-right="0"
     fit-margin-bottom="0" />
  <defs
     id="defs9272">
    <inkscape:perspective
       id="perspective9278"
       inkscape:persp3d-origin="372.04724 : 350.78739 : 1"
       inkscape:vp_z="744.09448 : 526.18109 : 1"
       inkscape:vp_y="0 : 1000 : 0"
       inkscape:vp_x="0 : 526.18109 : 1"
       sodipodi:type="inkscape:persp3d" />
    <inkscape:perspective
       id="perspective9491"
       inkscape:persp3d-origin="0.5 : 0.33333333 : 1"
       inkscape:vp_z="1 : 0.5 : 1"
       inkscape:vp_y="0 : 1000 : 0"
       inkscape:vp_x="0 : 0.5 : 1"
       sodipodi:type="inkscape:persp3d" />
    <inkscape:perspective
       id="perspective9491-2"
       inkscape:persp3d-origin="0.5 : 0.33333333 : 1"
       inkscape:vp_z="1 : 0.5 : 1"
       inkscape:vp_y="0 : 1000 : 0"
       inkscape:vp_x="0 : 0.5 : 1"
       sodipodi:type="inkscape:persp3d" />
    <inkscape:perspective
       id="perspective9491-6"
       inkscape:persp3d-origin="0.5 : 0.33333333 : 1"
       inkscape:vp_z="1 : 0.5 : 1"
       inkscape:vp_y="0 : 1000 : 0"
       inkscape:vp_x="0 : 0.5 : 1"
       sodipodi:type="inkscape:persp3d" />
    <inkscape:perspective
       id="perspective9649"
       inkscape:persp3d-origin="0.5 : 0.33333333 : 1"
       inkscape:vp_z="1 : 0.5 : 1"
       inkscape:vp_y="0 : 1000 : 0"
       inkscape:vp_x="0 : 0.5 : 1"
       sodipodi:type="inkscape:persp3d" />
    <marker
       inkscape:stockid="Arrow1Lend"
       orient="auto"
       refY="0"
       refX="0"
       id="Arrow1Lend"
       style="overflow:visible">
      <path
         id="path4313"
         d="M 0,0 5,-5 -12.5,0 5,5 0,0 Z"
         style="fill-rule:evenodd;stroke:#000000;stroke-width:1pt;marker-start:none"
         transform="matrix(-0.8,0,0,-0.8,-10,0)"
         inkscape:connector-curvature="0" />
    </marker>
    <inkscape:perspective
       id="perspective9683"
       inkscape:persp3d-origin="0.5 : 0.33333333 : 1"
       inkscape:vp_z="1 : 0.5 : 1"
       inkscape:vp_y="0 : 1000 : 0"
       inkscape:vp_x="0 : 0.5 : 1"
       sodipodi:type="inkscape:persp3d" />
    <marker
       inkscape:stockid="Arrow1Lstart"
       orient="auto"
       refY="0"
       refX="0"
       id="Arrow1Lstart"
       style="overflow:visible">
      <path
         id="path4310"
         d="M 0,0 5,-5 -12.5,0 5,5 0,0 Z"
         style="fill-rule:evenodd;stroke:#000000;stroke-width:1pt;marker-start:none"
         transform="matrix(0.8,0,0,0.8,10,0)"
         inkscape:connector-curvature="0" />
    </marker>
    <inkscape:perspective
       sodipodi:type="inkscape:persp3d"
       inkscape:vp_x="0 : 0.5 : 1"
       inkscape:vp_y="0 : 1000 : 0"
       inkscape:vp_z="1 : 0.5 : 1"
       inkscape:persp3d-origin="0.5 : 0.33333333 : 1"
       id="perspective11058" />
    <inkscape:perspective
       sodipodi:type="inkscape:persp3d"
       inkscape:vp_x="0 : 0.5 : 1"
       inkscape:vp_y="0 : 1000 : 0"
       inkscape:vp_z="1 : 0.5 : 1"
       inkscape:persp3d-origin="0.5 : 0.33333333 : 1"
       id="perspective11103" />
    <inkscape:perspective
       id="perspective11806"
       inkscape:persp3d-origin="0.5 : 0.33333333 : 1"
       inkscape:vp_z="1 : 0.5 : 1"
       inkscape:vp_y="0 : 1000 : 0"
       inkscape:vp_x="0 : 0.5 : 1"
       sodipodi:type="inkscape:persp3d" />
    <inkscape:perspective
       id="perspective11834"
       inkscape:persp3d-origin="0.5 : 0.33333333 : 1"
       inkscape:vp_z="1 : 0.5 : 1"
       inkscape:vp_y="0 : 1000 : 0"
       inkscape:vp_x="0 : 0.5 : 1"
       sodipodi:type="inkscape:persp3d" />
    <inkscape:perspective
       id="perspective11834-9"
       inkscape:persp3d-origin="0.5 : 0.33333333 : 1"
       inkscape:vp_z="1 : 0.5 : 1"
       inkscape:vp_y="0 : 1000 : 0"
       inkscape:vp_x="0 : 0.5 : 1"
       sodipodi:type="inkscape:persp3d" />
    <inkscape:perspective
       id="perspective11869"
       inkscape:persp3d-origin="0.5 : 0.33333333 : 1"
       inkscape:vp_z="1 : 0.5 : 1"
       inkscape:vp_y="0 : 1000 : 0"
       inkscape:vp_x="0 : 0.5 : 1"
       sodipodi:type="inkscape:persp3d" />
    <inkscape:perspective
       id="perspective11891"
       inkscape:persp3d-origin="0.5 : 0.33333333 : 1"
       inkscape:vp_z="1 : 0.5 : 1"
       inkscape:vp_y="0 : 1000 : 0"
       inkscape:vp_x="0 : 0.5 : 1"
       sodipodi:type="inkscape:persp3d" />
    <inkscape:perspective
       id="perspective11917"
       inkscape:persp3d-origin="0.5 : 0.33333333 : 1"
       inkscape:vp_z="1 : 0.5 : 1"
       inkscape:vp_y="0 : 1000 : 0"
       inkscape:vp_x="0 : 0.5 : 1"
       sodipodi:type="inkscape:persp3d" />
  </defs>
  <metadata
     id="metadata9275">
    <rdf:RDF>
      <cc:Work
         rdf:about="">
        <dc:format>image/svg+xml</dc:format>
        <dc:type
           rdf:resource="http://purl.org/dc/dcmitype/StillImage" />
        <dc:title></dc:title>
      </cc:Work>
    </rdf:RDF>
  </metadata>
  <g
     id="layer1"
     inkscape:groupmode="layer"
     inkscape:label="Layer 1"
     transform="translate(-3.0638129,-5.2642637)">
    <path
       style="fill:none;stroke:#000000;stroke-width:2;stroke-linecap:butt;stroke-linejoin:miter;stroke-miterlimit:4;stroke-dasharray:4, 4;stroke-dashoffset:0;stroke-opacity:1"
       d="m 374.15744,22.006586 0,539.421464 0,0"
       id="path11857"
       inkscape:connector-curvature="0" />
    <path
       style="fill:none;stroke:#000000;stroke-width:2;stroke-linecap:butt;stroke-linejoin:miter;stroke-miterlimit:4;stroke-dasharray:4, 4;stroke-dashoffset:0;stroke-opacity:1"
       d="m 40.412544,230.6479 571.746336,0"
       id="path11859-0"
       inkscape:connector-curvature="0" />
    <path
       style="fill:none;stroke:#000000;stroke-width:2;stroke-linecap:butt;stroke-linejoin:miter;stroke-miterlimit:4;stroke-dasharray:4, 4;stroke-dashoffset:0;stroke-opacity:1"
       d="m 57.95939,328.08281 571.74634,0"
       id="path11859"
       inkscape:connector-curvature="0" />
    <path
       style="fill:none;stroke:#000000;stroke-width:2;stroke-linecap:butt;stroke-linejoin:miter;stroke-miterlimit:4;stroke-dasharray:4, 4;stroke-dashoffset:0;stroke-opacity:1"
       d="m 278.17265,22.996433 0,539.421457 0,0"
       id="path11857-3"
       inkscape:connector-curvature="0" />
    <path
       style="fill:none;stroke:#000000;stroke-width:2;stroke-linecap:butt;stroke-linejoin:miter;stroke-miterlimit:4;stroke-dasharray:none;stroke-opacity:1;marker-end:url(#Arrow1Lend)"
       d="m 54.827268,280.31298 546.916902,0"
       id="path5801"
       inkscape:connector-curvature="0" />
    <path
       style="fill:none;stroke:#000000;stroke-width:2.02388787;stroke-linecap:butt;stroke-linejoin:miter;stroke-miterlimit:4;stroke-dasharray:none;stroke-opacity:1;marker-start:url(#Arrow1Lstart)"
       d="m 327.13743,9.183085 0,165.021335 0,401.41767"
       id="path5803"
       inkscape:connector-curvature="0" />
    <circle
       style="fill:#ffffff;fill-opacity:1;stroke:#000000;stroke-width:3;stroke-linecap:butt;stroke-linejoin:round;stroke-miterlimit:4;stroke-dasharray:none;stroke-dashoffset:0;stroke-opacity:1"
       id="path3598-8-2-3"
       transform="matrix(0.43478261,0,0,0.43478261,324.09093,85.770357)"
       cx="111.42857"
       cy="332.36218"
       r="10" />
    <text
       xml:space="preserve"
       style="font-style:normal;font-weight:normal;font-size:40px;font-family:'Bitstream Vera Sans';fill:#000000;fill-opacity:1;stroke:none"
       x="377.04578"
       y="223.7122"
       id="text9617"><tspan
         sodipodi:role="line"
         id="tspan9619"
         x="377.04578"
         y="223.7122"
         style="font-size:30px">(1;1)</tspan></text>
    <text
       xml:space="preserve"
       style="font-style:normal;font-weight:normal;font-size:30px;font-family:'Bitstream Vera Sans';fill:#000000;fill-opacity:1;stroke:none"
       x="183.34013"
       y="358.02188"
       id="text9625"><tspan
         sodipodi:role="line"
         id="tspan9627"
         x="183.34013"
         y="358.02188"
         style="font-size:30px">(-1;-1)</tspan></text>
    <path
       id="path11633"
       title="1/x"
       d="m 3.336585,284.57215 c 0.807199,-0.22886 83.6144,6.2876 84.421599,6.0977 0.807199,-0.1899 1.614401,0.25009 2.421599,0.0997 0.807202,-0.15005 1.614401,0.21199 2.421599,0.10207 0.807202,-0.11021 1.614401,0.1739 2.4216,0.10411 0.807201,-0.0698 1.6144,0.13551 2.421599,0.10614 0.807201,-0.0294 1.6144,0.0974 2.421599,0.10847 0.8072,0.0116 1.6144,0.059 2.4216,0.11079 0.8072,0.0518 1.6144,0.0204 2.4216,0.11342 0.8072,0.0922 1.6144,-0.0174 2.4216,0.11574 0.8072,0.13231 1.6144,-0.0538 2.4216,0.11835 0.8072,0.17216 1.6144,-0.0904 2.4216,0.12097 0.8072,0.21142 1.6144,-0.12649 2.4216,0.12389 0.8072,0.25038 1.6144,-0.16198 2.4216,0.12679 0.80719,0.28876 1.6144,-0.19659 2.4216,0.12969 0.80719,0.32611 1.6144,-0.23002 2.42159,0.13261 0.8072,0.3628 1.6144,-0.2626 2.4216,0.1358 0.80721,0.39857 1.6144,-0.29411 2.4216,0.13929 0.80721,0.43333 1.6144,-0.32435 2.4216,0.14279 0.8072,0.46697 1.6144,-0.3533 2.4216,0.14627 0.8072,0.49945 1.6144,-0.38083 2.4216,0.14976 0.8072,0.53069 1.6144,-0.40691 2.4216,0.15355 0.8072,0.56057 1.6144,-0.43141 2.4216,0.15761 0.80719,0.58902 1.61439,-0.45429 2.4216,0.16168 0.8072,0.61601 1.61441,-0.4754 2.42161,0.16605 0.80718,0.64145 1.61438,-0.49474 2.42159,0.17041 0.8072,0.66524 1.6144,-0.51222 2.42161,0.17506 0.80718,0.68737 1.61438,-0.5278 2.42158,0.18001 0.80721,0.70775 1.61441,-0.54136 2.42162,0.18495 0.80717,0.72636 1.61438,-0.5529 2.42158,0.19018 0.80721,0.74311 1.61441,-0.56229 2.42162,0.19571 0.80717,0.75803 1.61438,-0.56956 2.42158,0.20153 0.8072,0.771 1.61441,-0.57463 2.42161,0.20734 0.80718,0.78205 1.61438,-0.57745 2.42159,0.21373 0.8072,0.7911 1.61441,-0.57799 2.42161,0.22014 0.80718,0.79816 1.61438,-0.57622 2.42159,0.22712 0.8072,0.80319 1.61441,-0.5721 2.42161,0.23409 0.80721,0.80622 1.61438,-0.56558 2.42159,0.24166 0.8072,0.8072 1.6144,-0.55665 2.42161,0.2495 0.8072,0.80613 1.61438,-0.54534 2.42158,0.25765 0.80721,0.80305 1.61441,-0.53155 2.42162,0.26638 0.8072,0.79792 1.61438,-0.5153 2.42158,0.27538 0.80721,0.79081 1.61441,-0.4966 2.42162,0.28499 0.8072,0.78167 1.61438,-0.4754 2.42158,0.29516 0.8072,0.77059 1.61441,-0.4517 2.42161,0.30584 0.80721,0.7575 1.61438,-0.42553 2.42159,0.31703 0.8072,0.74256 1.61441,-0.39683 2.42161,0.32889 0.80721,0.72573 1.61438,-0.36562 2.42159,0.34143 0.8072,0.70706 1.61441,-0.33192 2.42161,0.35469 0.80721,0.68661 1.61438,-0.29568 2.42159,0.36874 0.8072,0.66442 1.6144,-0.25707 2.42161,0.38362 0.8072,0.64055 1.61438,-0.21577 2.42158,0.39945 0.80721,0.61507 1.61441,-0.17187 2.42162,0.41628 0.8072,0.58802 1.61438,-0.12534 2.42158,0.43416 0.80721,0.55953 1.61441,-0.0765 2.42162,0.45324 0.8072,0.52961 1.61438,-0.0233 2.42158,0.47363 0.8072,0.49835 1.61441,0.0297 2.42161,0.49541 0.80721,0.4658 1.61438,0.0867 2.42159,0.51873 0.8072,0.4321 1.61441,0.14627 2.42161,0.54371 0.80721,0.39732 1.61441,0.20909 2.42159,0.57055 0.8072,0.36152 1.61441,0.27481 2.42161,0.59946 0.8072,0.32482 1.61441,0.34332 2.42158,0.6306 0.80721,0.28731 1.61441,0.4152 2.42162,0.66422 0.8072,0.24892 1.61441,0.49049 2.42158,0.70062 0.80721,0.21025 1.61441,0.56936 2.42162,0.74012 0.8072,0.1707 1.61441,0.65209 2.42158,0.78298 0.80721,0.13086 1.61441,0.73904 2.42161,0.82974 0.80721,0.0907 1.61441,0.8305 2.42159,0.88081 0.8072,0.0503 1.61441,0.92695 2.42161,0.93672 0.80721,0.009 1.61441,1.02894 2.42159,0.99818 0.8072,-0.0308 1.61441,1.13706 2.42161,1.06581 0.80721,-0.0712 1.61441,1.25219 2.42159,1.14064 0.8072,-0.11167 1.61441,1.37514 2.42161,1.22357 0.8072,-0.15151 1.61441,1.50711 2.42158,1.3159 0.80721,-0.19105 1.61441,1.64948 2.42162,1.41914 0.8072,-0.23031 1.61441,1.80389 2.42158,1.53499 0.80721,-0.26899 1.61441,1.97242 2.42162,1.66562 0.8072,-0.30682 1.61441,2.15757 2.42158,1.81367 0.80721,-0.34393 1.61441,2.36255 2.42161,1.98238 0.80721,-0.38019 1.61441,2.59124 2.42159,2.17578 0.8072,-0.41547 1.61441,2.84865 2.42161,2.39893 0.80721,-0.4497 1.61441,3.14111 2.42162,2.65829 0.80717,-0.48278 1.61438,3.47679 2.42158,2.9621 0.80721,-0.51469 1.61441,3.8664 2.42161,3.32115 0.80718,-0.54528 1.61438,4.32414 2.42159,3.74967 0.8072,-0.57448 1.61441,4.86908 2.42161,4.26686 0.80718,-0.60225 1.61438,5.52745 2.42159,4.89897 0.8072,-0.62848 1.61441,6.33597 2.42161,5.68283 0.80718,-0.65311 1.61438,7.34728 2.42159,6.67117 0.8072,-0.67614 1.6144,8.63925 2.42161,7.94183 0.80717,-0.69743 1.61438,10.33078 2.42158,9.61381 0.80721,-0.71694 1.61441,12.61057 2.42162,11.87589 0.80717,-0.73468 1.61438,15.79333 2.42158,15.04277 0.80721,-0.75053 1.61441,20.43587 2.42162,19.67133 0.80717,-0.76451 1.61438,27.60112 2.42158,26.82456 0.8072,-0.77655 1.61441,39.53322 2.42161,38.74658 0.80718,-0.78665 1.61438,61.6822 2.42159,60.88744"
       style="fill:none;stroke:#000000;stroke-width:2;stroke-linecap:butt;stroke-linejoin:round;stroke-miterlimit:4;stroke-dasharray:none;stroke-dashoffset:0;stroke-opacity:1"
       sodipodi:nodetypes="csssssssssssssssssssssssssssssssssssssssssssssssssssssssssssssssssssssssssssssssssssssssssssssssc"
       inkscape:connector-curvature="0" />
    <text
       xml:space="preserve"
       style="font-style:normal;font-weight:normal;font-size:40px;font-family:'Bitstream Vera Sans';fill:#000000;fill-opacity:1;stroke:none"
       x="335.16891"
       y="67.157745"
       id="text6263"><tspan
         sodipodi:role="line"
         id="tspan6265"
         x="335.16891"
         y="67.157745"
         style="font-style:italic">y</tspan></text>
    <text
       xml:space="preserve"
       style="font-style:normal;font-weight:normal;font-size:40px;font-family:'Bitstream Vera Sans';fill:#000000;fill-opacity:1;stroke:none"
       x="579.75739"
       y="312.63681"
       id="text6263-4"><tspan
         id="tspan11075"
         sodipodi:role="line"
         x="579.75739"
         y="312.63681"
         style="font-style:italic">x</tspan></text>
    <path
       id="path11633-7"
       title="1/x"
       d="m 334.90419,6.266689 c 0.8072,-0.79476 1.61438,61.67409 2.42158,60.88744 0.80721,-0.78664 1.61441,39.523131 2.42162,38.746581 0.8072,-0.77656 1.61438,27.58907 2.42158,26.82456 0.8072,-0.76455 1.61441,20.42185 2.42161,19.67133 0.80721,-0.75056 1.61438,15.77745 2.42159,15.04277 0.8072,-0.73468 1.61441,12.59283 2.42161,11.87589 0.80721,-0.71697 1.61438,10.31124 2.42159,9.61381 0.8072,-0.69742 1.61441,8.61797 2.42161,7.94183 0.8072,-0.67611 1.61438,7.32428 2.42158,6.67117 0.80721,-0.65314 1.61441,6.31131 2.42162,5.68283 0.8072,-0.62848 1.61438,5.50122 2.42158,4.89897 0.80721,-0.60222 1.61441,4.84134 2.42162,4.26686 0.8072,-0.57448 1.61438,4.29495 2.42158,3.74967 0.80721,-0.54525 1.61441,3.83584 2.42161,3.32115 0.80721,-0.51469 1.61438,3.44488 2.42159,2.9621 0.8072,-0.48282 1.61441,3.10799 2.42161,2.65829 0.80721,-0.44972 1.61438,2.8144 2.42159,2.39893 0.8072,-0.41546 1.61441,2.55597 2.42161,2.17577 0.80721,-0.38016 1.61438,2.32632 2.42159,1.98239 0.8072,-0.3439 1.6144,2.12049 2.42161,1.81367 0.8072,-0.3068 1.61438,1.93455 2.42158,1.66562 0.80721,-0.26899 1.61441,1.76533 2.42162,1.53499 0.8072,-0.23032 1.61441,1.61031 2.42158,1.41913 0.80721,-0.19105 1.61441,1.46747 2.42162,1.31591 0.8072,-0.15151 1.61441,1.33512 2.42158,1.22357 0.80721,-0.11167 1.61441,1.21188 2.42161,1.14064 0.80721,-0.0712 1.61441,1.09658 2.42159,1.06581 0.8072,-0.0308 1.61441,0.98837 2.42161,0.99817 0.80721,0.009 1.61441,0.88642 2.42159,0.93673 0.8072,0.0503 1.61441,0.79008 2.42161,0.88081 0.80721,0.0907 1.61441,0.69885 2.42159,0.82974 0.8072,0.13086 1.6144,0.61225 2.42161,0.78298 0.8072,0.1707 1.61441,0.52995 2.42158,0.74012 0.80721,0.21025 1.61441,0.45158 2.42162,0.70062 0.8072,0.24893 1.61441,0.37694 2.42158,0.66422 0.80721,0.28731 1.61441,0.30578 2.42162,0.6306 0.8072,0.3248 1.6144,0.23788 2.42158,0.59946 0.8072,0.36149 1.61441,0.17332 2.42161,0.57055 0.80721,0.39732 1.61441,0.11167 2.42159,0.54371 0.8072,0.4321 1.61441,0.0529 2.42161,0.51873 0.80721,0.4658 1.61441,-0.003 2.42159,0.49541 0.8072,0.49831 1.61441,-0.0558 2.42161,0.47362 0.8072,0.52958 1.61441,-0.10614 2.42161,0.45325 0.80718,0.55953 1.61438,-0.15384 2.42159,0.43416 0.8072,0.58806 1.61441,-0.19891 2.42161,0.41628 0.80718,0.61508 1.61438,-0.24107 2.42159,0.39945 0.8072,0.64057 1.61441,-0.28092 2.42161,0.38362 0.80718,0.66442 1.61438,-0.31787 2.42159,0.36874 0.8072,0.68661 1.6144,-0.35237 2.42161,0.35469 0.80717,0.70705 1.61438,-0.3843 2.42158,0.34143 0.80721,0.72572 1.61441,-0.41367 2.42162,0.32889 0.80717,0.74256 1.61438,-0.44048 2.42158,0.31703 0.80721,0.75754 1.61441,-0.46476 2.42162,0.30584 0.80717,0.77056 1.61438,-0.48651 2.42158,0.29516 0.8072,0.7817 1.61441,-0.5057 2.42161,0.28498 0.80718,0.79081 1.61438,-0.52242 2.42159,0.27539 0.8072,0.79796 1.61441,-0.53664 2.42161,0.26638 0.80718,0.80307 1.61438,-0.5484 2.42159,0.25765 0.8072,0.80615 1.61441,-0.5577 2.42161,0.2495 0.80718,0.80721 1.61438,-0.56459 2.42158,0.24166 0.80721,0.80621 1.61441,-0.56907 2.42162,0.23409 0.80717,0.80322 1.61438,-0.57116 2.42158,0.22712 0.80721,0.79816 1.61441,-0.57093 2.42162,0.22013 0.80717,0.7911 1.61438,-0.5684 2.42158,0.21374 0.80721,0.78202 1.61441,-0.5636 2.42161,0.20734 0.80721,0.771 1.61438,-0.55659 2.42159,0.20153 0.8072,0.758 1.61441,-0.54741 2.42161,0.19571 0.80721,0.74314 1.61438,-0.53612 2.42159,0.19018 0.8072,0.72636 1.61441,-0.52274 2.42161,0.18495 0.80721,0.70775 1.61438,-0.50742 2.42159,0.18001 0.8072,0.68736 1.6144,-0.49009 2.42161,0.17506 0.8072,0.66523 1.61438,-0.47095 2.42158,0.17041 0.80721,0.64142 1.61441,-0.44999 2.42162,0.16604 0.8072,0.61604 1.61438,-0.42727 2.42158,0.16169 0.80721,0.58904 1.61441,-0.40293 2.42162,0.15761 0.8072,0.56058 1.61438,-0.37702 2.42158,0.15355 0.80721,0.53068 1.61441,-0.34961 2.42161,0.14976 0.80721,0.49945 1.61438,-0.32081 2.42159,0.14627 0.8072,0.467 1.61441,-0.2908 2.42161,0.14249 0.80721,0.43333 1.61438,-0.25939 2.42159,0.1393 0.8072,0.39857 1.61441,-0.22683 2.42161,0.1358 0.80721,0.3628 1.61438,-0.19338 2.42159,0.13261 0.8072,0.32613 1.6144,-0.15907 2.42161,0.12969 0.8072,0.28848 1.61438,-0.12359 2.42158,0.12679 0.80721,0.25038 1.61441,-0.0878 2.42162,0.12388 0.8072,0.21141 1.61438,-0.0512 2.42158,0.12098 0.80721,0.17215 1.61441,-0.0145 2.42162,0.11835 0.8072,0.13232 1.6144,0.0233 2.42158,0.11574 0.8072,0.0922 1.61441,0.0616 2.42161,0.11341 0.80721,0.0518 1.61441,0.0997 2.42159,0.1108 0.8072,0.0116 1.61441,0.13784 2.42161,0.10847 0.80721,-0.0294 1.61441,0.17622 2.42159,0.10614 0.8072,-0.0698 1.61441,0.21432 2.42161,0.10411 0.8072,-0.11022 1.61441,0.25212 2.42158,0.10178 0.80721,-0.15006 1.61441,0.28963 2.42162,0.0997 0.8072,-0.18989 61.61441,4.3268 62.42158,4.0977"
       style="fill:none;stroke:#000000;stroke-width:2;stroke-linecap:butt;stroke-linejoin:round;stroke-miterlimit:4;stroke-dasharray:none;stroke-dashoffset:0;stroke-opacity:1"
       sodipodi:nodetypes="csssssssssssssssssssssssssssssssssssssssssssssssssssssssssssssssssssssssssssssssssssssssssssssssc"
       inkscape:connector-curvature="0" />
    <circle
       style="fill:#ffffff;fill-opacity:1;stroke:#000000;stroke-width:3;stroke-linecap:butt;stroke-linejoin:round;stroke-miterlimit:4;stroke-dasharray:none;stroke-dashoffset:0;stroke-opacity:1"
       id="path3598-8-2-3-0"
       transform="matrix(0.43478261,0,0,0.43478261,228.53764,183.43537)"
       cx="111.42857"
       cy="332.36218"
       r="10" />
    <text
       xml:space="preserve"
       style="font-style:normal;font-weight:normal;font-size:40px;font-family:'Bitstream Vera Sans';fill:#000000;fill-opacity:1;stroke:none"
       x="567.50952"
       y="188.70441"
       id="text11905"
       transform="matrix(0.99327687,0.11576291,-0.11576291,0.99327687,0,0)"><tspan
         sodipodi:role="line"
         id="tspan11907"
         x="567.50952"
         y="188.70441"
         style="font-size:30px">y=1/x</tspan></text>
    <text
       xml:space="preserve"
       style="font-style:normal;font-weight:normal;font-size:40px;font-family:'Bitstream Vera Sans';fill:#000000;fill-opacity:1;stroke:none"
       x="87.700592"
       y="266.63504"
       id="text11905-6"
       transform="matrix(0.99327687,0.11576291,-0.11576291,0.99327687,0,0)"><tspan
         sodipodi:role="line"
         id="tspan11907-8"
         x="87.700592"
         y="266.63504"
         style="font-size:30px">y=1/x</tspan></text>
  </g>
</svg>
