<?xml version="1.0" encoding="UTF-8" standalone="no"?>
<!-- Created with Inkscape (http://www.inkscape.org/) -->

<svg
   xmlns:dc="http://purl.org/dc/elements/1.1/"
   xmlns:cc="http://creativecommons.org/ns#"
   xmlns:rdf="http://www.w3.org/1999/02/22-rdf-syntax-ns#"
   xmlns:svg="http://www.w3.org/2000/svg"
   xmlns="http://www.w3.org/2000/svg"
   xmlns:sodipodi="http://sodipodi.sourceforge.net/DTD/sodipodi-0.dtd"
   xmlns:inkscape="http://www.inkscape.org/namespaces/inkscape"
   sodipodi:docname="võrdeline_seos.svg"
   width="550.55695"
   height="575.91443"
   id="svg9270"
   version="1.1"
   inkscape:version="0.91 r13725">
  <sodipodi:namedview
     id="base"
     pagecolor="#ffffff"
     bordercolor="#666666"
     borderopacity="1.0"
     inkscape:pageopacity="0.0"
     inkscape:pageshadow="2"
     inkscape:zoom="0.7"
     inkscape:cx="40.018841"
     inkscape:cy="282.71978"
     inkscape:document-units="px"
     inkscape:current-layer="layer1"
     showgrid="false"
     inkscape:window-width="1920"
     inkscape:window-height="1141"
     inkscape:window-x="0"
     inkscape:window-y="0"
     inkscape:window-maximized="1"
     fit-margin-top="0"
     fit-margin-left="0"
     fit-margin-right="0"
     fit-margin-bottom="0" />
  <defs
     id="defs9272">
    <inkscape:perspective
       sodipodi:type="inkscape:persp3d"
       inkscape:vp_x="0 : 526.18109 : 1"
       inkscape:vp_y="0 : 1000 : 0"
       inkscape:vp_z="744.09448 : 526.18109 : 1"
       inkscape:persp3d-origin="372.04724 : 350.78739 : 1"
       id="perspective9278" />
    <inkscape:perspective
       sodipodi:type="inkscape:persp3d"
       inkscape:vp_x="0 : 0.5 : 1"
       inkscape:vp_y="0 : 1000 : 0"
       inkscape:vp_z="1 : 0.5 : 1"
       inkscape:persp3d-origin="0.5 : 0.33333333 : 1"
       id="perspective9491" />
    <inkscape:perspective
       sodipodi:type="inkscape:persp3d"
       inkscape:vp_x="0 : 0.5 : 1"
       inkscape:vp_y="0 : 1000 : 0"
       inkscape:vp_z="1 : 0.5 : 1"
       inkscape:persp3d-origin="0.5 : 0.33333333 : 1"
       id="perspective9491-2" />
    <inkscape:perspective
       sodipodi:type="inkscape:persp3d"
       inkscape:vp_x="0 : 0.5 : 1"
       inkscape:vp_y="0 : 1000 : 0"
       inkscape:vp_z="1 : 0.5 : 1"
       inkscape:persp3d-origin="0.5 : 0.33333333 : 1"
       id="perspective9491-6" />
    <inkscape:perspective
       sodipodi:type="inkscape:persp3d"
       inkscape:vp_x="0 : 0.5 : 1"
       inkscape:vp_y="0 : 1000 : 0"
       inkscape:vp_z="1 : 0.5 : 1"
       inkscape:persp3d-origin="0.5 : 0.33333333 : 1"
       id="perspective9649" />
    <marker
       style="overflow:visible"
       id="Arrow1Lend"
       refX="0"
       refY="0"
       orient="auto"
       inkscape:stockid="Arrow1Lend">
      <path
         transform="matrix(-0.8,0,0,-0.8,-10,0)"
         style="fill-rule:evenodd;stroke:#000000;stroke-width:1pt;marker-start:none"
         d="M 0,0 5,-5 -12.5,0 5,5 0,0 Z"
         id="path4313"
         inkscape:connector-curvature="0" />
    </marker>
    <inkscape:perspective
       sodipodi:type="inkscape:persp3d"
       inkscape:vp_x="0 : 0.5 : 1"
       inkscape:vp_y="0 : 1000 : 0"
       inkscape:vp_z="1 : 0.5 : 1"
       inkscape:persp3d-origin="0.5 : 0.33333333 : 1"
       id="perspective9683" />
    <marker
       style="overflow:visible"
       id="Arrow1Lstart"
       refX="0"
       refY="0"
       orient="auto"
       inkscape:stockid="Arrow1Lstart">
      <path
         transform="matrix(0.8,0,0,0.8,10,0)"
         style="fill-rule:evenodd;stroke:#000000;stroke-width:1pt;marker-start:none"
         d="M 0,0 5,-5 -12.5,0 5,5 0,0 Z"
         id="path4310"
         inkscape:connector-curvature="0" />
    </marker>
    <inkscape:perspective
       id="perspective11058"
       inkscape:persp3d-origin="0.5 : 0.33333333 : 1"
       inkscape:vp_z="1 : 0.5 : 1"
       inkscape:vp_y="0 : 1000 : 0"
       inkscape:vp_x="0 : 0.5 : 1"
       sodipodi:type="inkscape:persp3d" />
    <inkscape:perspective
       id="perspective11103"
       inkscape:persp3d-origin="0.5 : 0.33333333 : 1"
       inkscape:vp_z="1 : 0.5 : 1"
       inkscape:vp_y="0 : 1000 : 0"
       inkscape:vp_x="0 : 0.5 : 1"
       sodipodi:type="inkscape:persp3d" />
  </defs>
  <metadata
     id="metadata9275">
    <rdf:RDF>
      <cc:Work
         rdf:about="">
        <dc:format>image/svg+xml</dc:format>
        <dc:type
           rdf:resource="http://purl.org/dc/dcmitype/StillImage" />
        <dc:title></dc:title>
      </cc:Work>
    </rdf:RDF>
  </metadata>
  <g
     inkscape:label="Layer 1"
     inkscape:groupmode="layer"
     id="layer1"
     transform="translate(7.172732,0.29233722)">
    <path
       id="path5801"
       d="m -7.172732,280.31298 546.916902,0"
       style="fill:none;stroke:#000000;stroke-width:2;stroke-linecap:butt;stroke-linejoin:miter;stroke-miterlimit:4;stroke-dasharray:none;stroke-opacity:1;marker-end:url(#Arrow1Lend)"
       inkscape:connector-curvature="0" />
    <path
       id="path5803"
       d="m 265.13743,9.183085 0,165.021335 0,401.41767"
       style="fill:none;stroke:#000000;stroke-width:2.02388787;stroke-linecap:butt;stroke-linejoin:miter;stroke-miterlimit:4;stroke-dasharray:none;stroke-opacity:1;marker-start:url(#Arrow1Lstart)"
       inkscape:connector-curvature="0" />
    <text
       id="text6263"
       y="67.157745"
       x="273.16891"
       style="font-style:normal;font-weight:normal;font-size:40px;font-family:'Bitstream Vera Sans';fill:#000000;fill-opacity:1;stroke:none"
       xml:space="preserve"><tspan
         style="font-style:italic"
         y="67.157745"
         x="273.16891"
         id="tspan6265"
         sodipodi:role="line">y</tspan></text>
    <g
       id="g11040"
       transform="matrix(0.48063891,0,0,0.48063891,-273.04157,-288.31058)"
       style="stroke-width:4.16112804;stroke-miterlimit:4;stroke-dasharray:none">
      <path
         id="path9823"
         title="x"
         d="m 654.62518,1649.7799 c 1.55653,-0.4415 3.11306,-4.3037 4.66956,-4.6697 1.55659,-0.3659 3.11309,-4.38 4.66962,-4.6695 1.55653,-0.2896 3.11306,-4.4573 4.66962,-4.6696 1.55653,-0.2123 3.11304,-4.535 4.66957,-4.6696 1.55653,-0.1348 3.11309,-4.613 4.66962,-4.6696 1.55653,-0.057 3.11303,-4.6913 4.66961,-4.6696 1.55651,0.021 3.11304,-4.7694 4.66957,-4.6696 1.55651,0.1 3.11309,-4.8473 4.66959,-4.6696 1.55653,0.1774 3.11306,-4.9247 4.6696,-4.6696 1.55655,0.2552 3.11308,-5.0015 4.66959,-4.6696 1.55653,0.3319 3.11308,-5.0775 4.66962,-4.6696 1.55653,0.4079 3.11303,-5.1524 4.66956,-4.6696 1.55658,0.4828 3.11309,-5.2262 4.66962,-4.6696 1.55653,0.5565 3.11304,-5.2984 4.66962,-4.6696 1.5565,0.6289 3.11303,-5.3692 4.66956,-4.6696 1.55654,0.6996 3.11309,-5.4381 4.66962,-4.6696 1.55651,0.7685 3.11304,-5.5052 4.6696,-4.6696 1.55653,0.8356 3.11306,-5.5701 4.66956,-4.6696 1.55653,0.9005 3.11309,-5.6327 4.66962,-4.6696 1.55653,0.9632 3.11306,-5.6929 4.66957,-4.6696 1.55658,1.0233 3.11308,-5.7505 4.66961,-4.6696 1.55654,1.081 3.11309,-5.8054 4.66962,-4.6695 1.55653,1.1358 3.11304,-5.8575 4.66957,-4.6697 1.55656,1.1879 3.11309,-5.9064 4.66962,-4.6696 1.5565,1.2369 3.11303,-5.9524 4.66959,-4.6695 1.55653,1.2827 3.11306,-5.9951 4.66959,-4.6697 1.55656,1.3255 3.11309,-6.0343 4.66959,-4.6696 1.55654,1.3648 3.11307,-6.0702 4.66962,-4.6695 1.55653,1.4006 3.11304,-6.1026 4.66957,-4.6696 1.55653,1.4329 3.11309,-6.1313 4.66962,-4.6696 1.55653,1.4617 3.11303,-6.1564 4.66956,-4.6696 1.55656,1.4867 3.11309,-6.1777 4.66962,-4.6696 1.55653,1.508 3.11309,-6.1951 4.66962,-4.6696 1.55651,1.5255 3.11304,-6.2087 4.66957,-4.6696 1.55655,1.539 3.11308,-6.2184 4.66959,-4.6696 1.55653,1.5488 3.11306,-6.2242 4.66962,-4.6696 1.55653,1.5546 3.11306,-6.2261 4.66956,-4.6696 1.55659,1.5565 3.11309,-6.2241 4.66962,-4.6696 1.55653,1.5545 3.11304,-6.2182 4.66962,-4.6696 1.55653,1.5486 3.11304,-6.2083 4.66957,-4.6696 1.55653,1.5387 3.11308,-6.1945 4.66961,-4.6696 1.55651,1.5249 3.11304,-6.1769 4.6696,-4.6696 1.55653,1.5073 3.11306,-6.1555 4.66959,-4.6696 1.5565,1.4859 3.11309,-6.1303 4.66959,-4.6696 1.55653,1.4607 3.11306,-6.1015 4.66957,-4.6696 1.55658,1.4319 3.11309,-6.069 4.66962,-4.6696 1.55653,1.3994 3.11306,-6.033 4.66961,-4.6696 1.55654,1.3635 3.11304,-5.9936 4.66957,-4.6696 1.55656,1.324 3.11309,-5.9508 4.66962,-4.6696 1.55653,1.2812 3.11303,-5.9048 4.66962,-4.6696 1.5565,1.2352 3.11303,-5.8556 4.66956,-4.6696 1.55651,1.1861 3.11309,-5.8035 4.6696,-4.6695 1.55653,1.1339 3.11306,-5.7486 4.66961,-4.6697 1.55654,1.079 3.11307,-5.6908 4.66957,-4.6696 1.55653,1.0213 3.11309,-5.6305 4.66962,-4.6695 1.55653,0.9609 3.11303,-5.5679 4.66957,-4.6696 1.55658,0.8982 3.11308,-5.5029 4.66961,-4.6697 1.55653,0.8333 3.11309,-5.4357 4.66962,-4.6695 1.55651,0.7661 3.11304,-5.3667 4.66957,-4.6696 1.55656,0.6971 3.11309,-5.2959 4.66962,-4.6697 1.5565,0.6264 3.11303,-5.2235 4.66959,-4.6695 1.55653,0.5539 3.11306,-5.1498 4.66957,-4.6696 1.55653,0.4802 3.11308,-5.0749 4.66961,-4.6696 1.55653,0.4054 3.11307,-4.9988 4.66962,-4.6696 1.55653,0.329 3.11304,-4.922 4.66957,-4.6696 1.55653,0.2526 3.11309,-4.8446 4.66962,-4.6696 1.55653,0.1751 3.11303,-4.7666 4.66956,-4.6696 1.55656,0.097 3.11309,-4.6885 4.66962,-4.6696 1.55651,0.021 3.11309,-4.6102 4.66959,-4.6696 1.55653,-0.059 3.11306,-4.5322 4.6696,-4.6696 1.55655,-0.1374 3.11308,-4.4545 4.66959,-4.6696 1.55653,-0.2149 3.11306,-4.3773 4.66962,-4.6696 1.55653,-0.2921 3.11303,-4.3009 4.66956,-4.6696 1.55656,-0.3689 3.11309,-4.2254 4.6696,-4.6696 1.5566,-0.4442 3.1131,-4.151 4.6696,-4.6696 1.5565,-0.5186 3.1131,-4.0779 4.6696,-4.6696 1.5565,-0.5916 3.1131,-4.0064 4.6696,-4.6696 1.5565,-0.6632 3.1131,-3.9365 4.6696,-4.6696 1.5565,-0.7331 3.1131,-3.8685 4.6696,-4.6696 1.5565,-0.8011 3.1131,-3.8024 4.6696,-4.6696 1.5565,-0.8671 3.1131,-3.7386 4.6696,-4.6695 1.5565,-0.931 3.1131,-3.6772 4.6696,-4.6697 1.5565,-0.9924 3.113,-3.6181 4.6696,-4.6695 1.5565,-1.0515 3.113,-3.5619 4.6696,-4.6696 1.5565,-1.1078 3.1131,-3.5083 4.6696,-4.6697 1.5565,-1.1612 3.113,-3.4576 4.6696,-4.6695 1.5565,-1.2119 3.113,-3.4102 4.6696,-4.6697 1.5565,-1.2594 3.1131,-3.3657 4.6696,-4.6695 1.5565,-1.3038 3.113,-3.3248 4.6696,-4.6696 1.5565,-1.3449 3.113,-3.2871 4.6695,-4.6696 1.5566,-1.3825 3.1131,-3.2529 4.6697,-4.6696 1.5565,-1.4167 3.113,-3.2223 4.6695,-4.6696 1.5566,-1.4473 3.1131,-3.1954 4.6697,-4.6696 1.5565,-1.4743 3.113,-3.1722 4.6696,-4.6696 1.5565,-1.4975 3.113,-3.1527 4.6695,-4.6696 1.5566,-1.5169 3.1131,-3.1371 4.6696,-4.6696 1.5566,-1.5326 3.1131,-3.1253 4.6696,-4.6696 1.5566,-1.5443 3.1131,-3.1175 4.6696,-4.6696 1.5565,-1.5521 3.1131,-3.1136 4.6696,-4.6696 1.5566,-1.556 3.1131,-3.1136 4.6697,-4.6696 1.5565,-1.556 3.113,-3.1175 4.6695,-4.6696 1.5565,-1.5521 3.1131,-3.1253 4.6696,-4.6696 1.5565,-1.5442 3.1131,-3.1371 4.6696,-4.6696 1.5566,-1.5325 3.1131,-3.1527 4.6696,-4.6696 1.5565,-1.5169 3.1131,-3.1721 4.6696,-4.6696 1.5565,-1.4974 3.1131,-3.1953 4.6696,-4.6696 1.5566,-1.4742 3.1131,-3.2223 4.6696,-4.6696 1.5565,-1.4473 3.1131,-3.2529 4.6696,-4.6695 1.5565,-1.4167 3.1131,-3.2871 4.6696,-4.6697 1.5565,-1.3825 3.1131,-3.3247 4.6696,-4.6695 1.5565,-1.3449 3.113,-3.3659 4.6696,-4.6696 1.5565,-1.3038 3.1131,-3.4102 4.6696,-4.6697 1.5565,-1.2594 3.1131,-3.4577 4.6696,-4.6695 1.5565,-1.2119 3.113,-3.5084 4.6696,-4.6696 1.5565,-1.1613 3.1131,-3.5619 4.6696,-4.6696 1.5565,-1.1078 3.113,-3.6182 4.6696,-4.6696 1.5565,-1.0515 3.113,-3.6772 4.6695,-4.6696 1.5566,-0.9925 3.1131,-3.7386 4.6697,-4.6696 1.5565,-0.931 3.113,-3.8025 4.6696,-4.6696 1.5565,-0.8672 3.113,-3.8685 4.6695,-4.6696 1.5566,-0.8012 3.1131,-3.9365 4.6697,-4.6696 1.5565,-0.7331 3.113,-4.0064 4.6696,-4.6696 1.5565,-0.6632 3.113,-4.078 4.6695,-4.6696 1.5566,-0.5916 3.1131,-4.1511 4.6696,-4.6696 1.5566,-0.5186 3.1131,-4.2254 4.6696,-4.6696 1.5566,-0.4442 3.1131,-4.3009 4.6696,-4.6696 1.5566,-0.3689 3.1131,-4.3773 4.6696,-4.6696 1.5566,-0.2925 3.1131,-4.4545 4.6696,-4.6696 1.5566,-0.2154 3.1131,-4.5322 4.6696,-4.6696 1.5565,-0.1374 3.1131,-4.6102 4.6696,-4.6696 1.5566,-0.059 3.1131,-4.6884 4.6696,-4.6696 1.5566,0.021 3.1131,-4.7666 4.6696,-4.6696 1.5565,0.097 3.1131,-4.8445 4.6696,-4.6696 1.5566,0.1751 3.1131,-4.922 4.6696,-4.6696 1.5565,0.2521 3.1131,-4.9988 4.6696,-4.6695 1.5565,0.329 3.113,-5.0749 4.6696,-4.6697 1.5565,0.4054 3.1131,-5.1497 4.6696,-4.6696 1.5565,0.4802 3.1131,-5.2235 4.6696,-4.6695 1.5565,0.5539 3.1131,-5.296 4.6696,-4.6697 1.5565,0.6264 3.1131,-5.36665 4.6696,-4.66958 1.5565,0.69715 3.113,-5.43573 4.6696,-4.66957 1.5565,0.76615 3.1131,-5.50285 4.6696,-4.66959 1.5565,0.83324 3.113,-5.56783 4.6696,-4.66962 1.5565,0.89825 3.113,-5.6305 4.6696,-4.66956 1.5565,0.96093 3.113,-5.69086 4.6696,-4.66962 1.5565,1.02124 3.113,-5.74856 4.6696,-4.66957 1.5565,1.07894 3.113,-5.80357 4.6696,-4.66962 1.5565,1.13394 3.113,-5.85565 4.6696,-4.66961 1.5565,1.18609 3.1131,-5.9048 4.6696,-4.66957 1.5565,1.2352 3.113,-5.95084 4.6695,-4.66962 1.5566,1.28125 3.1131,-5.99358 4.6696,-4.66959 1.5566,1.32402 3.1131,-6.03302 4.6697,-4.66957 1.5565,1.36343 3.113,-6.06907 4.6695,-4.66962 1.5566,1.39944 3.1131,-6.10148 4.6696,-4.66961 1.5565,1.43192 3.1131,-6.13032 4.6696,-4.66957 1.5566,1.46075 3.1131,-6.15549 4.6696,-4.66962 1.5565,1.4859 3.1131,-6.1769 4.6696,-4.66956 1.5566,1.50731 3.1131,-6.19455 4.6696,-4.66962 1.5566,1.52492 3.1131,-6.20825 4.6696,-4.6696 1.5565,1.53869 3.1131,-6.21813 4.6696,-4.66959 1.5566,1.54852 3.1131,-6.22412 4.6696,-4.66959 1.5565,1.5545 3.1131,-6.22615 4.6696,-4.66962 1.5565,1.55656 3.1131,-6.2242 4.6696,-4.66956 1.5565,1.55463 3.1131,-6.21843 4.6696,-4.66962 1.5565,1.5488 3.1131,-6.20867 4.6696,-4.66962 1.5565,1.53913 3.113,-6.19504 4.6696,-4.66957 1.5565,1.52547 3.1131,-6.1776 4.6696,-4.66962 1.5566,1.50802 3.1131,-6.1563 4.6696,-4.66959 1.5565,1.48674 3.113,-6.1313 4.6696,-4.66956 1.5565,1.46165 3.113,-6.10261 4.6696,-4.66962 1.5565,1.43296 3.1131,-6.07025 4.6696,-4.66957 1.5565,1.4006 3.113,-6.0344 4.6696,-4.66962 1.5565,1.36478 3.113,-5.99506 4.6696,-4.66962 1.5565,1.32548 3.1131,-5.95237 4.6696,-4.66956 1.5565,1.28278 3.113,-5.90649 4.6695,-4.66962 1.5566,1.23692 3.1131,-5.85745 4.6697,-4.66959 1.5565,1.18788 3.113,-5.80542 4.6696,-4.66959 1.5565,1.13583 3.113,-5.75054 4.6695,-4.6696 1.5566,1.08097 3.1131,-5.69291 4.6697,-4.66962 1.5565,1.02335 3.113,-5.63268 4.6696,-4.66956 1.5565,0.96312 3.113,-5.57007 4.6695,-4.66962 1.5565,0.90051 3.1131,-5.50514 4.6696,-4.66957 1.5566,0.83555 3.1131,-5.43818 4.6697,-4.66961 1.5565,0.76856 3.113,-5.3692 4.6695,-4.6696 1.5565,0.6996 3.1131,-5.29848 4.6696,-4.66959 1.5566,0.62887 3.1131,-5.22616 4.6696,-4.66959 1.5566,0.55655 3.1131,-5.15244 4.6696,-4.66962 1.5566,0.48285 3.1131,-5.07749 4.6696,-4.66957 1.5565,0.40791 3.1131,-5.00153 4.6696,-4.66961 1.5566,0.33194 3.1131,-4.92472 4.6696,-4.66962 1.5565,0.2552 3.1131,-4.84725 4.6696,-4.66957 1.5565,0.17742 3.1131,-4.76936 4.6696,-4.66962 1.5565,0.0999 3.1131,-4.69121 4.6696,-4.66956 1.5565,0.0208 3.1131,-4.61304 4.6697,-4.6696 1.5564,-0.0567 3.1128,-4.53499 4.6695,-4.66961 1.5565,-0.13476 3.1131,-4.45724 4.6696,-4.66957 1.5564,-0.21228 3.1131,-4.38011 4.6695,-4.66962 1.5567,-0.28956 3.1131,-4.3036 4.6696,-4.66962 1.5566,-0.36594 3.1131,-4.22803 4.6698,-4.66956"
         style="font-size:62.41691971px;fill:none;stroke:#000000;stroke-width:4.16112804;stroke-linecap:butt;stroke-linejoin:round;stroke-miterlimit:4;stroke-dasharray:none;stroke-dashoffset:0;stroke-opacity:1"
         inkscape:connector-curvature="0" />
      <path
         id="path9949"
         title="2*x"
         d="m 841.40903,1740.837 c 1.55653,1.5387 3.11308,-10.8641 4.66961,-9.3392 1.55651,1.5249 3.11304,-10.8465 4.6696,-9.3392 1.55653,1.5073 3.11306,-10.8251 4.66959,-9.3392 1.5565,1.4859 3.11309,-10.7999 4.66959,-9.3392 1.55653,1.4608 3.11306,-10.7711 4.66957,-9.3392 1.55658,1.4319 3.11309,-10.7386 4.66962,-9.3391 1.55653,1.3994 3.11306,-10.7027 4.66961,-9.3393 1.55654,1.3635 3.11304,-10.6631 4.66957,-9.3392 1.55656,1.324 3.11309,-10.6204 4.66962,-9.3391 1.55653,1.2812 3.11303,-10.5744 4.66962,-9.3393 1.5565,1.2353 3.11303,-10.5252 4.66956,-9.3391 1.55651,1.1861 3.11309,-10.4732 4.6696,-9.3392 1.55653,1.1339 3.11306,-10.4182 4.66961,-9.3392 1.55654,1.079 3.11307,-10.3605 4.66957,-9.3392 1.55653,1.0212 3.11309,-10.3001 4.66962,-9.3392 1.55653,0.9609 3.11303,-10.2374 4.66957,-9.3392 1.55658,0.8982 3.11308,-10.1725 4.66961,-9.3392 1.55653,0.8332 3.11309,-10.1053 4.66962,-9.3392 1.55651,0.7661 3.11304,-10.0363 4.66957,-9.3392 1.55656,0.6971 3.11309,-9.9655 4.66962,-9.3392 1.5565,0.6263 3.11303,-9.8931 4.66959,-9.3392 1.55653,0.554 3.11306,-9.8194 4.66957,-9.3391 1.55653,0.4801 3.11308,-9.7445 4.66961,-9.3392 1.55653,0.4053 3.11307,-9.6685 4.66962,-9.3392 1.55653,0.329 3.11304,-9.5916 4.66957,-9.3393 1.55653,0.2526 3.11309,-9.514 4.66962,-9.3391 1.55653,0.175 3.11303,-9.4362 4.66956,-9.3392 1.55656,0.097 3.11309,-9.3581 4.66962,-9.3392 1.55651,0.021 3.11309,-9.2799 4.66959,-9.3392 1.55653,-0.059 3.11306,-9.2018 4.6696,-9.3392 1.55655,-0.1374 3.11308,-9.1241 4.66959,-9.3392 1.55653,-0.2151 3.11306,-9.0469 4.66962,-9.3392 1.55653,-0.2921 3.11303,-8.9705 4.66956,-9.3392 1.55656,-0.3689 3.11309,-8.895 4.6696,-9.3392 1.5566,-0.4442 3.1131,-8.8206 4.6696,-9.3392 1.5565,-0.5185 3.1131,-8.7475 4.6696,-9.3392 1.5565,-0.5916 3.1131,-8.676 4.6696,-9.3391 1.5565,-0.6632 3.1131,-8.6062 4.6696,-9.3392 1.5565,-0.7331 3.1131,-8.5381 4.6696,-9.3392 1.5565,-0.8012 3.1131,-8.4721 4.6696,-9.3392 1.5565,-0.8672 3.1131,-8.4082 4.6696,-9.3392 1.5565,-0.931 3.1131,-8.3467 4.6696,-9.3392 1.5565,-0.9925 3.113,-8.2878 4.6696,-9.3392 1.5565,-1.0514 3.113,-8.2314 4.6696,-9.3392 1.5565,-1.1078 3.1131,-8.1779 4.6696,-9.3392 1.5565,-1.1613 3.113,-8.1273 4.6696,-9.3392 1.5565,-1.2119 3.113,-8.0797 4.6696,-9.3392 1.5565,-1.2594 3.1131,-8.0354 4.6696,-9.3392 1.5565,-1.3038 3.113,-7.9943 4.6696,-9.3391 1.5565,-1.3449 3.113,-7.9568 4.6695,-9.3393 1.5566,-1.3825 3.1131,-7.9225 4.6697,-9.3392 1.5565,-1.4166 3.113,-7.8918 4.6695,-9.3391 1.5566,-1.4473 3.1131,-7.865 4.6697,-9.3392 1.5565,-1.4743 3.113,-7.8418 4.6696,-9.3392 1.5565,-1.4975 3.113,-7.8223 4.6695,-9.3392 1.5566,-1.5169 3.1131,-7.8067 4.6696,-9.3392 1.5566,-1.5325 3.1131,-7.795 4.6696,-9.3392 1.5566,-1.5443 3.1131,-7.7871 4.6696,-9.3392 1.5565,-1.5521 3.1131,-7.7832 4.6696,-9.3392 1.5566,-1.5561 3.1131,-7.7832 4.6697,-9.3392 1.5565,-1.556 3.113,-7.7871 4.6695,-9.3392 1.5565,-1.5521 3.1131,-7.7949 4.6696,-9.3392 1.5565,-1.5442 3.1131,-7.8066 4.6696,-9.3392 1.5566,-1.5325 3.1131,-7.8223 4.6696,-9.3392 1.5565,-1.5169 3.1131,-7.8417 4.6696,-9.3392 1.5565,-1.4974 3.1131,-7.8649 4.6696,-9.3391 1.5566,-1.4743 3.1131,-7.8919 4.6696,-9.3392 1.5565,-1.4473 3.1131,-7.9226 4.6696,-9.3393 1.5565,-1.4166 3.1131,-7.9566 4.6696,-9.3391 1.5565,-1.3825 3.1131,-7.9944 4.6696,-9.3392 1.5565,-1.3449 3.113,-8.0354 4.6696,-9.3392 1.5565,-1.3038 3.1131,-8.0798 4.6696,-9.3392 1.5565,-1.2594 3.1131,-8.1273 4.6696,-9.3392 1.5565,-1.2119 3.113,-8.1779 4.6696,-9.3392 1.5565,-1.1613 3.1131,-8.2314 4.6696,-9.3392 1.5565,-1.1077 3.113,-8.2877 4.6696,-9.3392 1.5565,-1.0515 3.113,-8.3467 4.6695,-9.3392 1.5566,-0.9924 3.1131,-8.4082 4.6697,-9.3392 1.5565,-0.931 3.113,-8.472 4.6696,-9.3392 1.5565,-0.8671 3.113,-8.53802 4.6695,-9.33915 1.5566,-0.80113 3.1131,-8.60613 4.6697,-9.33918 1.5565,-0.73311 3.113,-8.67604 4.6696,-9.33921 1.5565,-0.66316 3.113,-8.74755 4.6695,-9.33919 1.5566,-0.59161 3.1131,-8.82064 4.6696,-9.33918 1.5566,-0.5186 3.1131,-8.89502 4.6696,-9.33919 1.5566,-0.44422 3.1131,-8.97051 4.6696,-9.33924 1.5566,-0.36888 3.1131,-9.04691 4.6696,-9.33915 1.5566,-0.29209 3.1131,-9.12413 4.6696,-9.33919 1.5566,-0.2154 3.1131,-9.20183 4.6696,-9.33918 1.5565,-0.13736 3.1131,-9.2799 4.6696,-9.33924 1.5566,-0.0591 3.1131,-9.35802 4.6696,-9.33918 1.5566,0.0156 3.1131,-9.4362 4.6696,-9.33916 1.5565,0.097 3.1131,-9.51416 4.6696,-9.33924 1.5566,0.17508 3.1131,-9.59157 4.6696,-9.33918 1.5565,0.25233 3.1131,-9.6684 4.6696,-9.33919 1.5565,0.32903 3.113,-9.74441 4.6696,-9.33918 1.5565,0.4054 3.1131,-9.81938 4.6696,-9.33921 1.5565,0.48022 3.1131,-9.89313 4.6696,-9.33919 1.5565,0.55395 3.1131,-9.96553 4.6696,-9.33918 1.5565,0.62634 3.1131,-10.03631 4.6696,-9.33919 1.5565,0.6971 3.113,-10.10535 4.6696,-9.33921 1.5565,0.76617 3.1131,-10.17242 4.6696,-9.33918 1.5565,0.83323 3.113,-10.23743 4.6696,-9.33919 1.5565,0.89819 3.113,-10.30017 4.6696,-9.33921 1.5565,0.96094 3.113,-10.36045 4.6696,-9.33918 1.5565,1.02123 3.113,-10.41815 4.6696,-9.33919 1.5565,1.07894 3.113,-10.47314 4.6696,-9.33918 1.5565,1.13393 3.113,-10.52528 4.6696,-9.33924 1.5565,1.18609 3.1131,-10.57436 4.6696,-9.33916 1.5565,1.23518 3.113,-10.6204 4.6695,-9.33918 1.5566,1.28122 3.1131,-10.66323 4.6696,-9.33924 1.5566,1.32404 3.1131,-10.70261 4.6697,-9.33918 1.5565,1.36345 3.113,-10.73862 4.6695,-9.33919 1.5566,1.39946 3.1131,-10.77111 4.6696,-9.33916 1.5565,1.43187 3.1131,-10.79995 4.6696,-9.33923 1.5566,1.46074 3.1131,-10.82506 4.6696,-9.33919 1.5565,1.4859 3.1131,-10.84652 4.6696,-9.33918 1.5566,1.50731 3.1131,-10.86411 4.6696,-9.33919 1.5566,1.5249 3.1131,-10.87787 4.6696,-9.33921 1.5565,1.53869 3.1131,-10.88773 4.6696,-9.33918 1.5566,1.54854 3.1131,-10.89369 4.6696,-9.33919 1.5565,1.55448 3.1131,-10.89574 4.6696,-9.33921"
         style="font-size:62.41691971px;fill:none;stroke:#000000;stroke-width:4.16112804;stroke-linecap:butt;stroke-linejoin:round;stroke-miterlimit:4;stroke-dasharray:none;stroke-dashoffset:0;stroke-opacity:1"
         sodipodi:nodetypes="cssssssssssssssssssssssssssssssssssssssssssssssssssssssssssssssssssssssssssssssssssssssssssssssssssssssssssssssssssssssssss"
         inkscape:connector-curvature="0" />
      <path
         style="font-size:62.41691971px;fill:none;stroke:#000000;stroke-width:4.16112804;stroke-linecap:butt;stroke-linejoin:round;stroke-miterlimit:4;stroke-dasharray:none;stroke-dashoffset:0;stroke-opacity:1"
         d="m 925.46179,1766.5198 c 1.55651,0.7661 3.11304,-14.706 4.66957,-14.0088 1.55656,0.6971 3.11309,-14.6351 4.66962,-14.0088 1.5565,0.6263 3.11303,-14.5627 4.66959,-14.0088 1.55653,0.554 3.11306,-14.489 4.66957,-14.0088 1.55653,0.4802 3.11308,-14.414 4.66961,-14.0088 1.55653,0.4054 3.11307,-14.338 4.66962,-14.0088 1.55653,0.329 3.11304,-14.2612 4.66957,-14.0088 1.55653,0.2526 3.11309,-14.1837 4.66962,-14.0088 1.55653,0.1751 3.11303,-14.1057 4.66956,-14.0087 1.55656,0.097 3.11309,-14.0277 4.66962,-14.0088 1.55651,0.016 3.11309,-13.9495 4.66959,-14.0088 1.55653,-0.059 3.11306,-13.8714 4.6696,-14.0088 1.55655,-0.1374 3.11308,-13.7937 4.66959,-14.0088 1.55653,-0.2154 3.11306,-13.7165 4.66962,-14.0088 1.55653,-0.2921 3.11303,-13.6401 4.66956,-14.0088 1.55656,-0.3689 3.11309,-13.5646 4.6696,-14.0088 1.5566,-0.4441 3.1131,-13.4902 4.6696,-14.0088 1.5565,-0.5185 3.1131,-13.4171 4.6696,-14.0087 1.5565,-0.5917 3.1131,-13.3457 4.6696,-14.0088 1.5565,-0.6632 3.1131,-13.2757 4.6696,-14.0088 1.5565,-0.7331 3.1131,-13.2077 4.6696,-14.0088 1.5565,-0.8011 3.1131,-13.1416 4.6696,-14.0088 1.5565,-0.8672 3.1131,-13.0778 4.6696,-14.0088 1.5565,-0.931 3.1131,-13.0163 4.6696,-14.0088 1.5565,-0.9925 3.113,-12.9573 4.6696,-14.0088 1.5565,-1.0514 3.113,-12.901 4.6696,-14.0088 1.5565,-1.1077 3.1131,-12.8475 4.6696,-14.0087 1.5565,-1.1613 3.113,-12.7969 4.6696,-14.0088 1.5565,-1.2119 3.113,-12.7494 4.6696,-14.0088 1.5565,-1.2594 3.1131,-12.705 4.6696,-14.0088 1.5565,-1.3038 3.113,-12.664 4.6696,-14.0088 1.5565,-1.3449 3.113,-12.6263 4.6695,-14.0088 1.5566,-1.3825 3.1131,-12.5921 4.6697,-14.0088 1.5565,-1.4167 3.113,-12.5615 4.6695,-14.0088 1.5566,-1.4472 3.1131,-12.5345 4.6697,-14.0088 1.5565,-1.4742 3.113,-12.5113 4.6696,-14.0087 1.5565,-1.4975 3.113,-12.4919 4.6695,-14.0088 1.5566,-1.5169 3.1131,-12.4763 4.6696,-14.0088 1.5566,-1.5326 3.1131,-12.4646 4.6696,-14.0088 1.5566,-1.5443 3.1131,-12.4567 4.6696,-14.0088 1.5565,-1.5521 3.1131,-12.4527 4.6696,-14.0088 1.5566,-1.556 3.1131,-12.4527 4.6697,-14.0088 1.5565,-1.556 3.113,-12.4567 4.6695,-14.0088 1.5565,-1.5521 3.1131,-12.4645 4.6696,-14.0088 1.5565,-1.5442 3.1131,-12.4762 4.6696,-14.0087 1.5566,-1.5326 3.1131,-12.4919 4.6696,-14.0088 1.5565,-1.5169 3.1131,-12.5114 4.6696,-14.0088 1.5565,-1.4975 3.1131,-12.5346 4.6696,-14.0088 1.5566,-1.4742 3.1131,-12.5615 4.6696,-14.0088 1.5565,-1.4473 3.1131,-12.5921 4.6696,-14.0088 1.5565,-1.4167 3.1131,-12.6263 4.6696,-14.0088 1.5565,-1.3825 3.1131,-12.6639 4.6696,-14.0088 1.5565,-1.3448 3.113,-12.705 4.6696,-14.0088 1.5565,-1.3038 3.1131,-12.7493 4.6696,-14.0088 1.5565,-1.2594 3.1131,-12.79686 4.6696,-14.00878 1.5565,-1.21184 3.113,-12.84745 4.6696,-14.00878 1.5565,-1.16129 3.1131,-12.90101 4.6696,-14.00875 1.5565,-1.10778 3.113,-12.95739 4.6696,-14.0088 1.5565,-1.05147 3.113,-13.01634 4.6695,-14.00878 1.5566,-0.99251 3.1131,-13.07783 4.6697,-14.0088 1.5565,-0.93097 3.113,-13.14165 4.6696,-14.0088 1.5565,-0.86713 3.113,-13.20765 4.6695,-14.00878 1.5566,-0.80113 3.1131,-13.2757 4.6697,-14.0088 1.5565,-0.73306 3.113,-13.3456 4.6696,-14.00881 1.5565,-0.66317 3.113,-13.41713 4.6695,-14.00877 1.5566,-0.59159 3.1131,-13.49021 4.6696,-14.00881 1.5566,-0.51851 3.1131,-13.56458 4.6696,-14.00877 1.5566,-0.44419 3.1131,-13.64008 4.6696,-14.00881 1.5566,-0.36888 3.1131,-13.7165 4.6696,-14.00875 1.5566,-0.29208 3.1131,-13.79371 4.6696,-14.0088 1.5566,-0.2154 3.1131,-13.8714 4.6696,-14.00878 1.5565,-0.13709 3.1131,-13.94946 4.6696,-14.0088 1.5566,-0.059 3.1131,-14.02766 4.6696,-14.00878 1.5566,0.0156 3.1131,-14.10583 4.6696,-14.0088 1.5565,0.097 3.1131,-14.18372 4.6696,-14.0088 1.5566,0.17507 3.1131,-14.26117 4.6696,-14.00878 1.5565,0.25208 3.1131,-14.33804 4.6696,-14.0088 1.5565,0.32903 3.113,-14.41403 4.6696,-14.0088 1.5565,0.4054 3.1131,-14.48898 4.6696,-14.00878 1.5565,0.48022 3.1131,-14.56275 4.6696,-14.00875 1.5565,0.55394 3.1131,-14.63515 4.6696,-14.00881 1.5565,0.62632 3.1131,-14.70593 4.6696,-14.00877 1.5565,0.69707 3.113,-14.77497 4.6696,-14.0088"
         title="3*x"
         id="path10015"
         sodipodi:nodetypes="csssssssssssssssssssssssssssssssssssssssssssssssssssssssssssssssssssssssssssssssssss"
         inkscape:connector-curvature="0" />
      <path
         style="font-size:62.41691971px;fill:none;stroke:#000000;stroke-width:4.16112804;stroke-linecap:butt;stroke-linejoin:round;stroke-miterlimit:4;stroke-dasharray:none;stroke-dashoffset:0;stroke-opacity:1"
         d="m 654.62518,720.53017 c 1.55653,-0.44154 3.11306,5.03558 4.66956,4.66956 1.55659,-0.36594 3.11309,4.95913 4.66962,4.66962 1.55653,-0.28956 3.11306,4.88195 4.66962,4.66962 1.55653,-0.21228 3.11304,4.80419 4.66957,4.66957 1.55653,-0.13476 3.11309,4.72617 4.66962,4.66961 1.55653,-0.0567 3.11303,4.64795 4.66961,4.6696 1.55651,0.0208 3.11304,4.56982 4.66957,4.66956 1.55651,0.0999 3.11309,4.49194 4.66959,4.66962 1.55653,0.17742 3.11306,4.41447 4.6696,4.66957 1.55655,0.2552 3.11308,4.3377 4.66959,4.66962 1.55653,0.33194 3.11308,4.26169 4.66962,4.66961 1.55653,0.40791 3.11303,4.18675 4.66956,4.66957 1.55658,0.48285 3.11309,4.11305 4.66962,4.66962 1.55653,0.55655 3.11304,4.0407 4.66962,4.66959 1.5565,0.62887 3.11303,3.96999 4.66956,4.66959 1.55654,0.6996 3.11309,3.90103 4.66962,4.6696 1.55651,0.76856 3.11304,3.83404 4.6696,4.66961 1.55653,0.83555 3.11306,3.76912 4.66956,4.66957 1.55653,0.90051 3.11309,3.7065 4.66962,4.66962 1.55653,0.96312 3.11306,3.64627 4.66957,4.66956 1.55658,1.02335 3.11308,3.58868 4.66961,4.66962 1.55654,1.08097 3.11309,3.53377 4.66962,4.6696 1.55653,1.13583 3.11304,3.48173 4.66957,4.66959 1.55656,1.18788 3.11309,3.43272 4.66962,4.66959 1.5565,1.23692 3.11303,3.38681 4.66959,4.66962 1.55653,1.28278 3.11306,3.34412 4.66959,4.66956 1.55656,1.32548 3.11309,3.30484 4.66959,4.66962 1.55654,1.36478 3.11307,3.26894 4.66962,4.66962 1.55653,1.4006 3.11304,3.23658 4.66957,4.66957 1.55653,1.43296 3.11309,3.20788 4.66962,4.66962 1.55653,1.46165 3.11303,3.18285 4.66956,4.66956 1.55656,1.48674 3.11309,3.16161 4.66962,4.66959 1.55653,1.50802 3.11309,3.14415 4.66962,4.66962 1.55651,1.52547 3.11304,3.13052 4.66957,4.66957 1.55655,1.53913 3.11308,3.12081 4.66959,4.66962 1.55653,1.5488 3.11306,3.11498 4.66962,4.66962 1.55653,1.55463 3.11306,3.11303 4.66956,4.66956 1.55659,1.55656 3.11309,3.11509 4.66962,4.66962 1.55653,1.5545 3.11304,3.12105 4.66962,4.66959 1.55653,1.54852 3.11304,3.13094 4.66957,4.66959 1.55653,1.53869 3.11308,3.14467 4.66961,4.6696 1.55651,1.52492 3.11304,3.16228 4.6696,4.66962 1.55653,1.50731 3.11306,3.18369 4.66959,4.66956 1.5565,1.4859 3.11309,3.20887 4.66959,4.66962 1.55653,1.46075 3.11306,3.2377 4.66957,4.66957 1.55658,1.43192 3.11309,3.27016 4.66962,4.66961 1.55653,1.39944 3.11306,3.30617 4.66961,4.66962 1.55654,1.36343 3.11304,3.34558 4.66957,4.66957 1.55656,1.32402 3.11309,3.38837 4.66962,4.66959 1.55653,1.28125 3.11303,3.43439 4.66962,4.66962 1.5565,1.2352 3.11303,3.48353 4.66956,4.66957 1.55651,1.18609 3.11309,3.53566 4.6696,4.66961 1.55653,1.13394 3.11306,3.59063 4.66961,4.66962 1.55654,1.07894 3.11307,3.64833 4.66957,4.66957 1.55653,1.02124 3.11309,3.70868 4.66962,4.66962 1.55653,0.96093 3.11303,3.77135 4.66957,4.66956 1.55658,0.89825 3.11308,3.83636 4.66961,4.66962 1.55653,0.83324 3.11309,3.90343 4.66962,4.66959 1.55651,0.76615 3.11304,3.9725 4.66957,4.66957 1.55656,0.69715 3.11309,4.04328 4.66962,4.66958 1.5565,0.6264 3.11303,4.1157 4.66959,4.6697 1.55653,0.5539 3.11306,4.1894 4.66957,4.6695 1.55653,0.4802 3.11308,4.2644 4.66961,4.6696 1.55653,0.4054 3.11307,4.3404 4.66962,4.6697 1.55653,0.329 3.11304,4.4171 4.66957,4.6695 1.55653,0.2521 3.11309,4.4947 4.66962,4.6696 1.55653,0.1751 3.11303,4.5726 4.66956,4.6696 1.55656,0.097 3.11309,4.6508 4.66962,4.6696 1.55651,0.021 3.11309,4.729 4.66959,4.6696 1.55653,-0.059 3.11306,4.807 4.6696,4.6696 1.55655,-0.1374 3.11308,4.8847 4.66959,4.6696 1.55653,-0.2154 3.11306,4.9619 4.66962,4.6696 1.55653,-0.2925 3.11303,5.0383 4.66956,4.6696 1.55656,-0.3689 3.11309,5.1138 4.6696,4.6696 1.5566,-0.4442 3.1131,5.1881 4.6696,4.6696 1.5565,-0.5186 3.1131,5.2612 4.6696,4.6696 1.5565,-0.5916 3.1131,5.3328 4.6696,4.6696 1.5565,-0.6632 3.1131,5.4027 4.6696,4.6696 1.5565,-0.7331 3.1131,5.4707 4.6696,4.6696 1.5565,-0.8012 3.1131,5.5367 4.6696,4.6696 1.5565,-0.8672 3.1131,5.6006 4.6696,4.6696 1.5565,-0.931 3.1131,5.662 4.6696,4.6696 1.5565,-0.9925 3.113,5.721 4.6696,4.6696 1.5565,-1.0515 3.113,5.7773 4.6696,4.6696 1.5565,-1.1078 3.1131,5.8308 4.6696,4.6696 1.5565,-1.1613 3.113,5.8814 4.6696,4.6696 1.5565,-1.2119 3.113,5.929 4.6696,4.6695 1.5565,-1.2594 3.1131,5.9734 4.6696,4.6697 1.5565,-1.3038 3.113,6.0144 4.6696,4.6696 1.5565,-1.3449 3.113,6.0521 4.6695,4.6695 1.5566,-1.3825 3.1131,6.0863 4.6697,4.6697 1.5565,-1.4167 3.113,6.1168 4.6695,4.6695 1.5566,-1.4473 3.1131,6.1439 4.6697,4.6696 1.5565,-1.4742 3.113,6.1671 4.6696,4.6696 1.5565,-1.4974 3.113,6.1865 4.6695,4.6696 1.5566,-1.5169 3.1131,6.2021 4.6696,4.6696 1.5566,-1.5325 3.1131,6.2139 4.6696,4.6696 1.5566,-1.5442 3.1131,6.2217 4.6696,4.6696 1.5565,-1.5521 3.1131,6.2256 4.6696,4.6696 1.5566,-1.556 3.1131,6.2256 4.6697,4.6696 1.5565,-1.556 3.113,6.2217 4.6695,4.6696 1.5565,-1.5521 3.1131,6.2139 4.6696,4.6696 1.5565,-1.5443 3.1131,6.2021 4.6696,4.6696 1.5566,-1.5326 3.1131,6.1865 4.6696,4.6696 1.5565,-1.5169 3.1131,6.167 4.6696,4.6696 1.5565,-1.4975 3.1131,6.1438 4.6696,4.6696 1.5566,-1.4743 3.1131,6.1169 4.6696,4.6696 1.5565,-1.4473 3.1131,6.0863 4.6696,4.6696 1.5565,-1.4167 3.1131,6.0521 4.6696,4.6696 1.5565,-1.3825 3.1131,6.0144 4.6696,4.6696 1.5565,-1.3449 3.113,5.9734 4.6696,4.6696 1.5565,-1.3038 3.1131,5.929 4.6696,4.6695 1.5565,-1.2594 3.1131,5.8816 4.6696,4.6697 1.5565,-1.2119 3.113,5.8309 4.6696,4.6695 1.5565,-1.1612 3.1131,5.7774 4.6696,4.6697 1.5565,-1.1078 3.113,5.721 4.6696,4.6696 1.5565,-1.0515 3.113,5.662 4.6695,4.6695 1.5566,-0.9924 3.1131,5.6006 4.6697,4.6697 1.5565,-0.931 3.113,5.5367 4.6696,4.6695 1.5565,-0.8671 3.113,5.4707 4.6695,4.6696 1.5566,-0.8011 3.1131,5.4027 4.6697,4.6696 1.5565,-0.7331 3.113,5.3328 4.6696,4.6696 1.5565,-0.6632 3.113,5.2613 4.6695,4.6696 1.5566,-0.5916 3.1131,5.1882 4.6696,4.6696 1.5566,-0.5186 3.1131,5.1138 4.6696,4.6696 1.5566,-0.4442 3.1131,5.0383 4.6696,4.6696 1.5566,-0.3689 3.1131,4.9619 4.6696,4.6696 1.5566,-0.2921 3.1131,4.8847 4.6696,4.6696 1.5566,-0.2149 3.1131,4.807 4.6696,4.6696 1.5565,-0.1374 3.1131,4.729 4.6696,4.6696 1.5566,-0.059 3.1131,4.6507 4.6696,4.6696 1.5566,0.021 3.1131,4.5726 4.6696,4.6696 1.5565,0.097 3.1131,4.4946 4.6696,4.6696 1.5566,0.1751 3.1131,4.4172 4.6696,4.6696 1.5565,0.2526 3.1131,4.3404 4.6696,4.6696 1.5565,0.329 3.113,4.2643 4.6696,4.6696 1.5565,0.4054 3.1131,4.1894 4.6696,4.6696 1.5565,0.4802 3.1131,4.1156 4.6696,4.6696 1.5565,0.5539 3.1131,4.0433 4.6696,4.6695 1.5565,0.6264 3.1131,3.9726 4.6696,4.6697 1.5565,0.6971 3.113,3.9034 4.6696,4.6696 1.5565,0.7661 3.1131,3.8363 4.6696,4.6695 1.5565,0.8333 3.113,3.7714 4.6696,4.6697 1.5565,0.8982 3.113,3.7086 4.6696,4.6696 1.5565,0.9609 3.113,3.6483 4.6696,4.6695 1.5565,1.0213 3.113,3.5907 4.6696,4.6696 1.5565,1.079 3.113,3.5357 4.6696,4.6697 1.5565,1.1339 3.113,3.4835 4.6696,4.6695 1.5565,1.1861 3.1131,3.4344 4.6696,4.6696 1.5565,1.2352 3.113,3.3884 4.6695,4.6696 1.5566,1.2812 3.1131,3.3456 4.6696,4.6696 1.5566,1.324 3.1131,3.3062 4.6697,4.6696 1.5565,1.3635 3.113,3.2702 4.6695,4.6696 1.5566,1.3994 3.1131,3.2377 4.6696,4.6696 1.5565,1.4319 3.1131,3.2089 4.6696,4.6696 1.5566,1.4607 3.1131,3.1837 4.6696,4.6696 1.5565,1.4859 3.1131,3.1623 4.6696,4.6696 1.5566,1.5073 3.1131,3.1447 4.6696,4.6696 1.5566,1.5249 3.1131,3.1309 4.6696,4.6696 1.5565,1.5387 3.1131,3.121 4.6696,4.6696 1.5566,1.5486 3.1131,3.1151 4.6696,4.6696 1.5565,1.5545 3.1131,3.1131 4.6696,4.6696 1.5565,1.5565 3.1131,3.115 4.6696,4.6696 1.5565,1.5546 3.1131,3.1208 4.6696,4.6696 1.5565,1.5488 3.1131,3.1305 4.6696,4.6696 1.5565,1.539 3.113,3.1441 4.6696,4.6696 1.5565,1.5255 3.1131,3.1615 4.6696,4.6696 1.5566,1.508 3.1131,3.1828 4.6696,4.6696 1.5565,1.4867 3.113,3.2079 4.6696,4.6696 1.5565,1.4617 3.113,3.2366 4.6696,4.6696 1.5565,1.4329 3.1131,3.2689 4.6696,4.6696 1.5565,1.4006 3.113,3.3048 4.6696,4.6695 1.5565,1.3648 3.113,3.3442 4.6696,4.6696 1.5565,1.3255 3.1131,3.3868 4.6696,4.6697 1.5565,1.2827 3.113,3.4327 4.6695,4.6695 1.5566,1.2369 3.1131,3.4818 4.6697,4.6696 1.5565,1.1879 3.113,3.5338 4.6696,4.6697 1.5565,1.1358 3.113,3.5886 4.6695,4.6695 1.5566,1.081 3.1131,3.6463 4.6697,4.6696 1.5565,1.0233 3.113,3.7065 4.6696,4.6696 1.5565,0.9632 3.113,3.7691 4.6695,4.6696 1.5565,0.9005 3.1131,3.834 4.6696,4.6696 1.5566,0.8356 3.1131,3.9011 4.6697,4.6696 1.5565,0.7685 3.113,3.97 4.6695,4.6696 1.5565,0.6996 3.1131,4.0408 4.6696,4.6696 1.5566,0.6289 3.1131,4.113 4.6696,4.6696 1.5566,0.5565 3.1131,4.1868 4.6696,4.6696 1.5566,0.4828 3.1131,4.2617 4.6696,4.6696 1.5565,0.4079 3.1131,4.3377 4.6696,4.6696 1.5566,0.3319 3.1131,4.4145 4.6696,4.6696 1.5565,0.2552 3.1131,4.4919 4.6696,4.6696 1.5565,0.1774 3.1131,4.5698 4.6696,4.6696 1.5565,0.1 3.1131,4.6479 4.6696,4.6696 1.5565,0.021 3.1131,4.7262 4.6697,4.6696 1.5564,-0.057 3.1128,4.8042 4.6695,4.6696 1.5565,-0.1348 3.1131,4.8819 4.6696,4.6696 1.5564,-0.2123 3.1131,4.9591 4.6695,4.6696 1.5567,-0.2896 3.1131,5.0355 4.6696,4.6695 1.5566,-0.3659 3.1131,5.1112 4.6698,4.6697"
         title="-x"
         id="path10153"
         inkscape:connector-curvature="0" />
      <path
         id="path10225"
         title="-2*x"
         d="m 832.06984,610.79464 c 1.55653,1.55448 3.11304,7.79064 4.66962,9.33919 1.55653,1.54854 3.11304,7.80052 4.66957,9.33918 1.55653,1.53869 3.11308,7.81429 4.66961,9.33921 1.55651,1.5249 3.11304,7.83185 4.6696,9.33919 1.55653,1.50731 3.11306,7.85331 4.66959,9.33918 1.5565,1.4859 3.11309,7.87847 4.66959,9.33919 1.55653,1.46074 3.11306,7.90728 4.66957,9.33923 1.55658,1.43187 3.11309,7.93973 4.66962,9.33916 1.55653,1.39946 3.11306,7.97576 4.66961,9.33919 1.55654,1.36345 3.11304,8.01519 4.66957,9.33918 1.55656,1.32404 3.11309,8.05802 4.66962,9.33924 1.55653,1.28122 3.11303,8.10398 4.66962,9.33918 1.5565,1.23518 3.11303,8.15312 4.66956,9.33916 1.55651,1.18609 3.11309,8.20528 4.6696,9.33924 1.55653,1.13393 3.11306,8.26022 4.66961,9.33918 1.55654,1.07894 3.11307,8.31792 4.66957,9.33919 1.55653,1.02123 3.11309,8.37822 4.66962,9.33918 1.55653,0.96094 3.11303,8.44097 4.66957,9.33921 1.55658,0.89819 3.11308,8.50595 4.66961,9.33919 1.55653,0.83323 3.11309,8.57304 4.66962,9.33918 1.55651,0.76617 3.11304,8.64209 4.66957,9.33921 1.55656,0.6971 3.11309,8.71284 4.66962,9.33919 1.5565,0.62634 3.11303,8.78524 4.66959,9.33918 1.55653,0.55395 3.11306,8.85902 4.66957,9.33919 1.55653,0.48022 3.11308,8.93398 4.66961,9.33921 1.55653,0.4054 3.11307,9.00997 4.66962,9.33918 1.55653,0.32903 3.11304,9.0868 4.66957,9.33919 1.55653,0.25233 3.11309,9.16426 4.66962,9.33918 1.55653,0.17508 3.11303,9.2422 4.66956,9.33924 1.55656,0.097 3.11309,9.32032 4.66962,9.33916 1.55651,0.0156 3.11309,9.39852 4.66959,9.33918 1.55653,-0.0591 3.11306,9.47659 4.6696,9.33924 1.55655,-0.13736 3.11308,9.55424 4.66959,9.33918 1.55653,-0.2154 3.11306,9.63143 4.66962,9.33919 1.55653,-0.29209 3.11303,9.70788 4.66956,9.33915 1.55656,-0.36888 3.11309,9.78341 4.6696,9.33924 1.5566,-0.44422 3.1131,9.85773 4.6696,9.33919 1.5565,-0.5186 3.1131,9.93082 4.6696,9.33918 1.5565,-0.59161 3.1131,10.00236 4.6696,9.33919 1.5565,-0.66316 3.1131,10.07226 4.6696,9.33921 1.5565,-0.73311 3.1131,10.14031 4.6696,9.33918 1.5565,-0.80113 3.1131,10.20635 4.6696,9.33915 1.5565,-0.8671 3.1131,10.2702 4.6696,9.3392 1.5565,-0.931 3.1131,10.3317 4.6696,9.3392 1.5565,-0.9924 3.113,10.3907 4.6696,9.3392 1.5565,-1.0515 3.113,10.447 4.6696,9.3392 1.5565,-1.1077 3.1131,10.5005 4.6696,9.3392 1.5565,-1.1613 3.113,10.5511 4.6696,9.3392 1.5565,-1.2119 3.113,10.5986 4.6696,9.3392 1.5565,-1.2594 3.1131,10.643 4.6696,9.3392 1.5565,-1.3038 3.113,10.684 4.6696,9.3392 1.5565,-1.3449 3.113,10.7217 4.6695,9.3392 1.5566,-1.3825 3.1131,10.7558 4.6697,9.3391 1.5565,-1.4166 3.113,10.7866 4.6695,9.3393 1.5566,-1.4473 3.1131,10.8134 4.6697,9.3392 1.5565,-1.4743 3.113,10.8366 4.6696,9.3391 1.5565,-1.4974 3.113,10.8561 4.6695,9.3392 1.5566,-1.5169 3.1131,10.8718 4.6696,9.3392 1.5566,-1.5325 3.1131,10.8835 4.6696,9.3392 1.5566,-1.5442 3.1131,10.8913 4.6696,9.3392 1.5565,-1.5521 3.1131,10.8952 4.6696,9.3392 1.5566,-1.556 3.1131,10.8952 4.6697,9.3392 1.5565,-1.5561 3.113,10.8913 4.6695,9.3392 1.5565,-1.5521 3.1131,10.8834 4.6696,9.3392 1.5565,-1.5443 3.1131,10.8717 4.6696,9.3392 1.5566,-1.5325 3.1131,10.8561 4.6696,9.3392 1.5565,-1.5169 3.1131,10.8366 4.6696,9.3392 1.5565,-1.4975 3.1131,10.8134 4.6696,9.3392 1.5566,-1.4743 3.1131,10.7865 4.6696,9.3392 1.5565,-1.4473 3.1131,10.7558 4.6696,9.3391 1.5565,-1.4166 3.1131,10.7217 4.6696,9.3392 1.5565,-1.3825 3.1131,10.6841 4.6696,9.3393 1.5565,-1.3449 3.113,10.6429 4.6696,9.3391 1.5565,-1.3038 3.1131,10.5987 4.6696,9.3392 1.5565,-1.2594 3.1131,10.5511 4.6696,9.3392 1.5565,-1.2119 3.113,10.5005 4.6696,9.3392 1.5565,-1.1613 3.1131,10.447 4.6696,9.3392 1.5565,-1.1078 3.113,10.3906 4.6696,9.3392 1.5565,-1.0514 3.113,10.3317 4.6695,9.3392 1.5566,-0.9925 3.1131,10.2702 4.6697,9.3392 1.5565,-0.931 3.113,10.2063 4.6696,9.3392 1.5565,-0.8672 3.113,10.1403 4.6695,9.3392 1.5566,-0.8012 3.1131,10.0722 4.6697,9.3392 1.5565,-0.7331 3.113,10.0023 4.6696,9.3392 1.5565,-0.6632 3.113,9.9308 4.6695,9.3391 1.5566,-0.5916 3.1131,9.8578 4.6696,9.3392 1.5566,-0.5185 3.1131,9.7834 4.6696,9.3392 1.5566,-0.4442 3.1131,9.7079 4.6696,9.3392 1.5566,-0.3689 3.1131,9.6315 4.6696,9.3392 1.5566,-0.2921 3.1131,9.5543 4.6696,9.3392 1.5566,-0.2151 3.1131,9.4766 4.6696,9.3392 1.5565,-0.1374 3.1131,9.3985 4.6696,9.3392 1.5566,-0.059 3.1131,9.3203 4.6696,9.3392 1.5566,0.021 3.1131,9.2422 4.6696,9.3392 1.5565,0.097 3.1131,9.1643 4.6696,9.3392 1.5566,0.175 3.1131,9.0868 4.6696,9.3391 1.5565,0.2526 3.1131,9.01 4.6696,9.3393 1.5565,0.329 3.113,8.9339 4.6696,9.3392 1.5565,0.4053 3.1131,8.8589 4.6696,9.3392 1.5565,0.4801 3.1131,8.7852 4.6696,9.3391 1.5565,0.554 3.1131,8.7129 4.6696,9.3392 1.5565,0.6263 3.1131,8.6421 4.6696,9.3392 1.5565,0.6971 3.113,8.5731 4.6696,9.3392 1.5565,0.7661 3.1131,8.5059 4.6696,9.3392 1.5565,0.8332 3.113,8.441 4.6696,9.3392 1.5565,0.8982 3.113,8.3783 4.6696,9.3392 1.5565,0.9609 3.113,8.3179 4.6696,9.3392 1.5565,1.0212 3.113,8.2602 4.6696,9.3392 1.5565,1.079 3.113,8.2052 4.6696,9.3392 1.5565,1.1339 3.113,8.1531 4.6696,9.3392 1.5565,1.1861 3.1131,8.104 4.6696,9.3391 1.5565,1.2353 3.113,8.058 4.6695,9.3393 1.5566,1.2812 3.1131,8.0152 4.6696,9.3391 1.5566,1.324 3.1131,7.9758 4.6697,9.3392 1.5565,1.3635 3.113,7.9398 4.6695,9.3393 1.5566,1.3994 3.1131,7.9072 4.6696,9.3391 1.5565,1.4319 3.1131,7.8785 4.6696,9.3392 1.5566,1.4608 3.1131,7.8533 4.6696,9.3392 1.5565,1.4859 3.1131,7.8319 4.6696,9.3392 1.5566,1.5073 3.1131,7.8143 4.6696,9.3392 1.5566,1.5249 3.1131,7.8005 4.6696,9.3392 1.5565,1.5387 3.1131,7.7907 4.6696,9.3392 1.5566,1.5485 3.1131,7.7847 4.6696,9.3392"
         style="font-size:62.41691971px;fill:none;stroke:#000000;stroke-width:4.16112804;stroke-linecap:butt;stroke-linejoin:round;stroke-miterlimit:4;stroke-dasharray:none;stroke-dashoffset:0;stroke-opacity:1"
         sodipodi:nodetypes="csssssssssssssssssssssssssssssssssssssssssssssssssssssssssssssssssssssssssssssssssssssssssssssssssssssssssssssssssssssssssss"
         inkscape:connector-curvature="0" />
      <path
         style="font-size:62.41691971px;fill:none;stroke:#000000;stroke-width:4.16112804;stroke-linecap:butt;stroke-linejoin:round;stroke-miterlimit:4;stroke-dasharray:none;stroke-dashoffset:0;stroke-opacity:1"
         d="m 925.46179,603.79026 c 1.55651,0.76614 3.11304,13.31164 4.66957,14.0088 1.55656,0.69707 3.11309,13.38243 4.66962,14.00877 1.5565,0.62632 3.11303,13.45481 4.66959,14.00881 1.55653,0.55394 3.11306,13.52855 4.66957,14.00875 1.55653,0.48022 3.11308,13.60355 4.66961,14.00878 1.55653,0.4054 3.11307,13.67956 4.66962,14.0088 1.55653,0.32903 3.11304,13.75641 4.66957,14.0088 1.55653,0.25208 3.11309,13.83386 4.66962,14.00878 1.55653,0.17507 3.11303,13.91177 4.66956,14.0088 1.55656,0.097 3.11309,13.98992 4.66962,14.0088 1.55651,0.0156 3.11309,14.06812 4.66959,14.00878 1.55653,-0.059 3.11306,14.14618 4.6696,14.0088 1.55655,-0.13709 3.11308,14.22387 4.66959,14.00878 1.55653,-0.2154 3.11306,14.30105 4.66962,14.0088 1.55653,-0.29208 3.11303,14.37748 4.66956,14.00875 1.55656,-0.36888 3.11309,14.453 4.6696,14.00881 1.5566,-0.44419 3.1131,14.52737 4.6696,14.00877 1.5565,-0.51851 3.1131,14.60045 4.6696,14.00881 1.5565,-0.59159 3.1131,14.67198 4.6696,14.00877 1.5565,-0.66317 3.1131,14.74191 4.6696,14.00881 1.5565,-0.73306 3.1131,14.80993 4.6696,14.0088 1.5565,-0.80113 3.1131,14.87593 4.6696,14.00878 1.5565,-0.86713 3.1131,14.93977 4.6696,14.0088 1.5565,-0.93097 3.1131,15.00124 4.6696,14.0088 1.5565,-0.99251 3.113,15.06019 4.6696,14.00878 1.5565,-1.05147 3.113,15.11654 4.6696,14.0088 1.5565,-1.10778 3.1131,15.17008 4.6696,14.00875 1.5565,-1.16129 3.113,15.2207 4.6696,14.00878 1.5565,-1.21184 3.113,15.26828 4.6696,14.00878 1.5565,-1.2594 3.1131,15.3126 4.6696,14.0088 1.5565,-1.3038 3.113,15.3537 4.6696,14.0088 1.5565,-1.3448 3.113,15.3913 4.6695,14.0088 1.5566,-1.3825 3.1131,15.4255 4.6697,14.0088 1.5565,-1.4167 3.113,15.4561 4.6695,14.0088 1.5566,-1.4473 3.1131,15.483 4.6697,14.0088 1.5565,-1.4742 3.113,15.5062 4.6696,14.0088 1.5565,-1.4975 3.113,15.5257 4.6695,14.0088 1.5566,-1.5169 3.1131,15.5413 4.6696,14.0088 1.5566,-1.5326 3.1131,15.553 4.6696,14.0087 1.5566,-1.5442 3.1131,15.5609 4.6696,14.0088 1.5565,-1.5521 3.1131,15.5649 4.6696,14.0088 1.5566,-1.556 3.1131,15.5649 4.6697,14.0088 1.5565,-1.556 3.113,15.5609 4.6695,14.0088 1.5565,-1.5521 3.1131,15.553 4.6696,14.0088 1.5565,-1.5443 3.1131,15.5413 4.6696,14.0088 1.5566,-1.5326 3.1131,15.5257 4.6696,14.0088 1.5565,-1.5169 3.1131,15.5062 4.6696,14.0088 1.5565,-1.4975 3.1131,15.483 4.6696,14.0087 1.5566,-1.4742 3.1131,15.4561 4.6696,14.0088 1.5565,-1.4472 3.1131,15.4255 4.6696,14.0088 1.5565,-1.4167 3.1131,15.3913 4.6696,14.0088 1.5565,-1.3825 3.1131,15.3536 4.6696,14.0088 1.5565,-1.3449 3.113,15.3126 4.6696,14.0088 1.5565,-1.3038 3.1131,15.2682 4.6696,14.0088 1.5565,-1.2594 3.1131,15.2207 4.6696,14.0088 1.5565,-1.2119 3.113,15.17 4.6696,14.0088 1.5565,-1.1613 3.1131,15.1165 4.6696,14.0087 1.5565,-1.1077 3.113,15.0603 4.6696,14.0088 1.5565,-1.0514 3.113,15.0013 4.6695,14.0088 1.5566,-0.9925 3.1131,14.9398 4.6697,14.0088 1.5565,-0.931 3.113,14.876 4.6696,14.0088 1.5565,-0.8672 3.113,14.8099 4.6695,14.0088 1.5566,-0.8011 3.1131,14.7419 4.6697,14.0088 1.5565,-0.7331 3.113,14.6719 4.6696,14.0088 1.5565,-0.6632 3.113,14.6004 4.6695,14.0088 1.5566,-0.5917 3.1131,14.5273 4.6696,14.0087 1.5566,-0.5185 3.1131,14.453 4.6696,14.0088 1.5566,-0.4441 3.1131,14.3775 4.6696,14.0088 1.5566,-0.3689 3.1131,14.3011 4.6696,14.0088 1.5566,-0.2921 3.1131,14.2239 4.6696,14.0088 1.5566,-0.2154 3.1131,14.1462 4.6696,14.0088 1.5565,-0.1374 3.1131,14.0681 4.6696,14.0088 1.5566,-0.059 3.1131,13.9899 4.6696,14.0088 1.5566,0.016 3.1131,13.9118 4.6696,14.0088 1.5565,0.097 3.1131,13.8338 4.6696,14.0087 1.5566,0.1751 3.1131,13.7564 4.6696,14.0088 1.5565,0.2526 3.1131,13.6796 4.6696,14.0088 1.5565,0.329 3.113,13.6036 4.6696,14.0088 1.5565,0.4054 3.1131,13.5286 4.6696,14.0088 1.5565,0.4802 3.1131,13.4549 4.6696,14.0088 1.5565,0.554 3.1131,13.3825 4.6696,14.0088 1.5565,0.6263 3.1131,13.3116 4.6696,14.0088 1.5565,0.6971 3.113,13.2426 4.6696,14.0088"
         title="-3*x"
         id="path10299"
         sodipodi:nodetypes="csssssssssssssssssssssssssssssssssssssssssssssssssssssssssssssssssssssssssssssssssss"
         inkscape:connector-curvature="0" />
      <path
         id="path10375"
         title="0.5*x"
         d="m 654.62518,1417.4674 c 1.55653,-0.4415 3.11306,-1.9688 4.66956,-2.3348 1.55659,-0.3659 3.11309,-2.0452 4.66962,-2.3348 1.55653,-0.2895 3.11306,-2.1224 4.66962,-2.3347 1.55653,-0.2123 3.11304,-2.2002 4.66957,-2.3349 1.55653,-0.1347 3.11309,-2.2782 4.66962,-2.3348 1.55653,-0.057 3.11303,-2.3564 4.66961,-2.3347 1.55651,0.021 3.11304,-2.4346 4.66957,-2.3349 1.55651,0.1 3.11309,-2.5124 4.66959,-2.3347 1.55653,0.1774 3.11306,-2.59 4.6696,-2.3348 1.55655,0.2552 3.11308,-2.6668 4.66959,-2.3349 1.55653,0.332 3.11308,-2.7427 4.66962,-2.3348 1.55653,0.408 3.11303,-2.8176 4.66956,-2.3347 1.55658,0.4828 3.11309,-2.8914 4.66962,-2.3348 1.55653,0.5565 3.11304,-2.9637 4.66962,-2.3348 1.5565,0.6288 3.11303,-3.0344 4.66956,-2.3348 1.55654,0.6996 3.11309,-3.1034 4.66962,-2.3349 1.55651,0.7686 3.11304,-3.1703 4.6696,-2.3347 1.55653,0.8355 3.11306,-3.2353 4.66956,-2.3348 1.55653,0.9005 3.11309,-3.298 4.66962,-2.3348 1.55653,0.9631 3.11306,-3.3581 4.66957,-2.3348 1.55658,1.0233 3.11308,-3.4158 4.66961,-2.3348 1.55654,1.0809 3.11309,-3.4707 4.66962,-2.3348 1.55653,1.1358 3.11304,-3.5227 4.66957,-2.3348 1.55656,1.1878 3.11309,-3.5717 4.66962,-2.3348 1.5565,1.2368 3.11303,-3.6176 4.66959,-2.3349 1.55653,1.2829 3.11306,-3.6602 4.66959,-2.3347 1.55656,1.3254 3.11309,-3.6996 4.66959,-2.3348 1.55654,1.3648 3.11307,-3.7355 4.66962,-2.3348 1.55653,1.4006 3.11304,-3.7678 4.66957,-2.3348 1.55653,1.433 3.11309,-3.7965 4.66962,-2.3348 1.55653,1.4617 3.11303,-3.8215 4.66956,-2.3348 1.55656,1.4867 3.11309,-3.8428 4.66962,-2.3348 1.55653,1.508 3.11309,-3.8603 4.66962,-2.3348 1.55651,1.5255 3.11304,-3.8739 4.66957,-2.3348 1.55655,1.5391 3.11308,-3.8836 4.66959,-2.3348 1.55653,1.5488 3.11306,-3.8894 4.66962,-2.3348 1.55653,1.5546 3.11306,-3.8914 4.66956,-2.3348 1.55659,1.5565 3.11309,-3.8893 4.66962,-2.3348 1.55653,1.5545 3.11304,-3.8833 4.66962,-2.3348 1.55653,1.5485 3.11304,-3.8735 4.66957,-2.3348 1.55653,1.5387 3.11308,-3.8597 4.66961,-2.3348 1.55651,1.5249 3.11304,-3.8421 4.6696,-2.3348 1.55653,1.5073 3.11306,-3.8207 4.66959,-2.3348 1.5565,1.4859 3.11309,-3.7955 4.66959,-2.3348 1.55653,1.4607 3.11306,-3.7667 4.66957,-2.3348 1.55658,1.4319 3.11309,-3.7342 4.66962,-2.3348 1.55653,1.3995 3.11306,-3.6982 4.66961,-2.3348 1.55654,1.3635 3.11304,-3.6588 4.66957,-2.3348 1.55656,1.324 3.11309,-3.616 4.66962,-2.3348 1.55653,1.2813 3.11303,-3.57 4.66962,-2.3348 1.5565,1.2352 3.11303,-3.5208 4.66956,-2.3348 1.55651,1.1861 3.11309,-3.4687 4.6696,-2.3348 1.55653,1.134 3.11306,-3.4137 4.66961,-2.3347 1.55654,1.0789 3.11307,-3.3561 4.66957,-2.3349 1.55653,1.0213 3.11309,-3.2957 4.66962,-2.3348 1.55653,0.961 3.11303,-3.233 4.66957,-2.3348 1.55658,0.8983 3.11308,-3.168 4.66961,-2.3348 1.55653,0.8333 3.11309,-3.1009 4.66962,-2.3348 1.55651,0.7662 3.11304,-3.0319 4.66957,-2.3347 1.55656,0.6971 3.11309,-2.9612 4.66962,-2.3349 1.5565,0.6264 3.11303,-2.8887 4.66959,-2.3348 1.55653,0.554 3.11306,-2.815 4.66957,-2.3347 1.55653,0.4801 3.11308,-2.7401 4.66961,-2.3349 1.55653,0.4054 3.11307,-2.664 4.66962,-2.3348 1.55653,0.329 3.11304,-2.5872 4.66957,-2.3348 1.55653,0.2524 3.11309,-2.5097 4.66962,-2.3348 1.55653,0.1751 3.11303,-2.4318 4.66956,-2.3347 1.55656,0.097 3.11309,-2.3537 4.66962,-2.3348 1.55651,0.016 3.11309,-2.2755 4.66959,-2.3349 1.55653,-0.059 3.11306,-2.1974 4.6696,-2.3348 1.55655,-0.1373 3.11308,-2.1197 4.66959,-2.3347 1.55653,-0.2154 3.11306,-2.0426 4.66962,-2.3348 1.55653,-0.2921 3.11303,-1.9661 4.66956,-2.3348 1.55656,-0.3689 3.11309,-1.8907 4.6696,-2.3348 1.5566,-0.4442 3.1131,-1.8163 4.6696,-2.3348 1.5565,-0.5186 3.1131,-1.7432 4.6696,-2.3348 1.5565,-0.5916 3.1131,-1.6716 4.6696,-2.3348 1.5565,-0.6632 3.1131,-1.6017 4.6696,-2.3348 1.5565,-0.7331 3.1131,-1.5337 4.6696,-2.3348 1.5565,-0.8012 3.1131,-1.4677 4.6696,-2.3348 1.5565,-0.8672 3.1131,-1.4038 4.6696,-2.3348 1.5565,-0.931 3.1131,-1.3423 4.6696,-2.3348 1.5565,-0.9925 3.113,-1.2834 4.6696,-2.3348 1.5565,-1.0515 3.113,-1.2271 4.6696,-2.3348 1.5565,-1.1078 3.1131,-1.1735 4.6696,-2.3348 1.5565,-1.1613 3.113,-1.1229 4.6696,-2.3348 1.5565,-1.2119 3.113,-1.0754 4.6696,-2.3348 1.5565,-1.2594 3.1131,-1.031 4.6696,-2.3348 1.5565,-1.3038 3.113,-0.99 4.6696,-2.3348 1.5565,-1.3449 3.113,-0.9523 4.6695,-2.3348 1.5566,-1.3825 3.1131,-0.9181 4.6697,-2.3348 1.5565,-1.4167 3.113,-0.8875 4.6695,-2.3348 1.5566,-1.4473 3.1131,-0.8606 4.6697,-2.3348 1.5565,-1.4742 3.113,-0.8373 4.6696,-2.3348 1.5565,-1.4975 3.113,-0.8179 4.6695,-2.3348 1.5566,-1.5169 3.1131,-0.8023 4.6696,-2.3348 1.5566,-1.5325 3.1131,-0.7906 4.6696,-2.3348 1.5566,-1.5443 3.1131,-0.7827 4.6696,-2.3348 1.5565,-1.5521 3.1131,-0.7788 4.6696,-2.3348 1.5566,-1.5561 3.1131,-0.7788 4.6697,-2.3348 1.5565,-1.556 3.113,-0.7827 4.6695,-2.3348 1.5565,-1.5521 3.1131,-0.7905 4.6696,-2.3348 1.5565,-1.5443 3.1131,-0.8023 4.6696,-2.3348 1.5566,-1.5325 3.1131,-0.8179 4.6696,-2.3348 1.5565,-1.5169 3.1131,-0.8373 4.6696,-2.3348 1.5565,-1.4975 3.1131,-0.8605 4.6696,-2.3348 1.5566,-1.4742 3.1131,-0.8875 4.6696,-2.3348 1.5565,-1.4473 3.1131,-0.9181 4.6696,-2.3348 1.5565,-1.4167 3.1131,-0.9523 4.6696,-2.3348 1.5565,-1.3825 3.1131,-0.99 4.6696,-2.3348 1.5565,-1.3448 3.113,-1.031 4.6696,-2.3348 1.5565,-1.3037 3.1131,-1.0754 4.6696,-2.3347 1.5565,-1.2595 3.1131,-1.123 4.6696,-2.3349 1.5565,-1.2118 3.113,-1.1735 4.6696,-2.3348 1.5565,-1.1613 3.1131,-1.227 4.6696,-2.3348 1.5565,-1.1077 3.113,-1.2833 4.6696,-2.3348 1.5565,-1.0514 3.113,-1.3423 4.6695,-2.3348 1.5566,-0.9924 3.1131,-1.4038 4.6697,-2.3348 1.5565,-0.9309 3.113,-1.4676 4.6696,-2.3348 1.5565,-0.8671 3.113,-1.5336 4.6695,-2.3348 1.5566,-0.8011 3.1131,-1.6017 4.6697,-2.3347 1.5565,-0.7331 3.113,-1.6717 4.6696,-2.3348 1.5565,-0.6632 3.113,-1.7432 4.6695,-2.3349 1.5566,-0.5915 3.1131,-1.8162 4.6696,-2.3348 1.5566,-0.5185 3.1131,-1.8906 4.6696,-2.3347 1.5566,-0.4442 3.1131,-1.9661 4.6696,-2.3348 1.5566,-0.369 3.1131,-2.0426 4.6696,-2.3348 1.5566,-0.2921 3.1131,-2.1198 4.6696,-2.3348 1.5566,-0.2154 3.1131,-2.1975 4.6696,-2.3349 1.5565,-0.1373 3.1131,-2.2754 4.6696,-2.3347 1.5566,-0.059 3.1131,-2.3537 4.6696,-2.3348 1.5566,0.016 3.1131,-2.4318 4.6696,-2.3348 1.5565,0.097 3.1131,-2.5097 4.6696,-2.3348 1.5566,0.175 3.1131,-2.5873 4.6696,-2.3348 1.5565,0.2521 3.1131,-2.6641 4.6696,-2.3348 1.5565,0.3294 3.113,-2.7401 4.6696,-2.3348 1.5565,0.4054 3.1131,-2.815 4.6696,-2.3348 1.5565,0.4802 3.1131,-2.8888 4.6696,-2.3349 1.5565,0.554 3.1131,-2.9611 4.6696,-2.3347 1.5565,0.6263 3.1131,-3.0319 4.6696,-2.3348 1.5565,0.6971 3.113,-3.101 4.6696,-2.3348 1.5565,0.7661 3.1131,-3.1681 4.6696,-2.3348 1.5565,0.8332 3.113,-3.233 4.6696,-2.3348 1.5565,0.8982 3.113,-3.2958 4.6696,-2.3348 1.5565,0.9609 3.113,-3.3561 4.6696,-2.3348 1.5565,1.0212 3.113,-3.4138 4.6696,-2.3348 1.5565,1.0789 3.113,-3.4687 4.6696,-2.3348 1.5565,1.1339 3.113,-3.5209 4.6696,-2.3348 1.5565,1.1861 3.1131,-3.57 4.6696,-2.3348 1.5565,1.2352 3.113,-3.616 4.6695,-2.3348 1.5566,1.2812 3.1131,-3.6588 4.6696,-2.3348 1.5566,1.324 3.1131,-3.6982 4.6697,-2.3348 1.5565,1.3634 3.113,-3.7342 4.6695,-2.3348 1.5566,1.3994 3.1131,-3.7667 4.6696,-2.3348 1.5565,1.4319 3.1131,-3.7956 4.6696,-2.3348 1.5566,1.4608 3.1131,-3.8207 4.6696,-2.3348 1.5565,1.4859 3.1131,-3.8421 4.6696,-2.3348 1.5566,1.5073 3.1131,-3.8597 4.6696,-2.3348 1.5566,1.5249 3.1131,-3.8735 4.6696,-2.3348 1.5565,1.5387 3.1131,-3.8833 4.6696,-2.3348 1.5566,1.5486 3.1131,-3.8893 4.6696,-2.3348 1.5565,1.5545 3.1131,-3.8913 4.6696,-2.3348 1.5565,1.5565 3.1131,-3.8894 4.6696,-2.3348 1.5565,1.5546 3.1131,-3.8836 4.6696,-2.3348 1.5565,1.5488 3.1131,-3.8739 4.6696,-2.3348 1.5565,1.5391 3.113,-3.8603 4.6696,-2.3348 1.5565,1.5255 3.1131,-3.8428 4.6696,-2.3348 1.5566,1.508 3.1131,-3.8215 4.6696,-2.3348 1.5565,1.4868 3.113,-3.7965 4.6696,-2.3348 1.5565,1.4617 3.113,-3.7677 4.6696,-2.3348 1.5565,1.433 3.1131,-3.7354 4.6696,-2.3348 1.5565,1.4007 3.113,-3.6995 4.6696,-2.3347 1.5565,1.3647 3.113,-3.6603 4.6696,-2.3349 1.5565,1.3255 3.1131,-3.6175 4.6696,-2.3348 1.5565,1.2828 3.113,-3.5717 4.6695,-2.3347 1.5566,1.2368 3.1131,-3.5227 4.6697,-2.3349 1.5565,1.1879 3.113,-3.4706 4.6696,-2.3348 1.5565,1.1359 3.113,-3.4157 4.6695,-2.3347 1.5566,1.0809 3.1131,-3.35816 4.6697,-2.33487 1.5565,1.02337 3.113,-3.29789 4.6696,-2.33477 1.5565,0.96312 3.113,-3.2353 4.6695,-2.3348 1.5565,0.90048 3.1131,-3.17037 4.6696,-2.33482 1.5566,0.83557 3.1131,-3.10336 4.6697,-2.3348 1.5565,0.76857 3.113,-3.03439 4.6695,-2.33477 1.5565,0.69958 3.1131,-2.96368 4.6696,-2.33482 1.5566,0.62889 3.1131,-2.89134 4.6696,-2.3348 1.5566,0.55655 3.1131,-2.81764 4.6696,-2.33479 1.5566,0.48282 3.1131,-2.7427 4.6696,-2.33482 1.5565,0.40792 3.1131,-2.66669 4.6696,-2.33477 1.5566,0.33194 3.1131,-2.58995 4.6696,-2.3348 1.5565,0.2552 3.1131,-2.51247 4.6696,-2.33477 1.5565,0.17742 3.1131,-2.43459 4.6696,-2.33485 1.5565,0.0999 3.1131,-2.35644 4.6696,-2.33477 1.5565,0.0208 3.1131,-2.27821 4.6697,-2.33479 1.5564,-0.0567 3.1128,-2.2002 4.6695,-2.33483 1.5565,-0.13475 3.1131,-2.12244 4.6696,-2.33479 1.5564,-0.21228 3.1131,-2.04526 4.6695,-2.33477 1.5567,-0.28957 3.1131,-1.96881 4.6696,-2.33482 1.5566,-0.36595 3.1131,-1.89326 4.6698,-2.3348"
         style="font-size:62.41691971px;fill:none;stroke:#000000;stroke-width:4.16112804;stroke-linecap:butt;stroke-linejoin:round;stroke-miterlimit:4;stroke-dasharray:none;stroke-dashoffset:0;stroke-opacity:1"
         inkscape:connector-curvature="0" />
      <path
         style="font-size:62.41691971px;fill:none;stroke:#000000;stroke-width:4.16112804;stroke-linecap:butt;stroke-linejoin:round;stroke-miterlimit:4;stroke-dasharray:none;stroke-dashoffset:0;stroke-opacity:1"
         d="m 654.62518,952.84258 c 1.55653,-0.44151 3.11306,2.70081 4.66956,2.3348 1.55659,-0.36595 3.11309,2.62433 4.66962,2.33482 1.55653,-0.28957 3.11306,2.54712 4.66962,2.33477 1.55653,-0.21228 3.11304,2.46942 4.66957,2.33479 1.55653,-0.13475 3.11309,2.39141 4.66962,2.33483 1.55653,-0.0567 3.11303,2.31312 4.66961,2.33479 1.55651,0.0208 3.11304,2.23503 4.66957,2.33477 1.55651,0.0999 3.11309,2.15715 4.66959,2.33485 1.55653,0.17742 3.11306,2.07962 4.6696,2.33477 1.55655,0.2552 3.11308,2.00288 4.66959,2.3348 1.55653,0.33194 3.11308,1.92689 4.66962,2.33477 1.55653,0.40792 3.11303,1.85197 4.66956,2.33482 1.55658,0.48282 3.11309,1.77825 4.66962,2.33479 1.55653,0.55655 3.11304,1.70594 4.66962,2.3348 1.5565,0.62889 3.11303,1.6352 4.66956,2.33482 1.55654,0.69958 3.11309,1.56621 4.66962,2.33477 1.55651,0.76857 3.11304,1.49925 4.6696,2.3348 1.55653,0.83557 3.11306,1.43432 4.66956,2.33482 1.55653,0.90048 3.11309,1.37168 4.66962,2.3348 1.55653,0.96312 3.11306,1.31148 4.66957,2.33477 1.55658,1.02337 3.11308,1.25387 4.66961,2.33487 1.55654,1.0809 3.11309,1.1989 4.66962,2.3347 1.55653,1.1359 3.11304,1.147 4.66957,2.3348 1.55656,1.1879 3.11309,1.0979 4.66962,2.3349 1.5565,1.2368 3.11303,1.052 4.66959,2.3347 1.55653,1.2828 3.11306,1.0094 4.66959,2.3348 1.55656,1.3255 3.11309,0.9701 4.66959,2.3349 1.55654,1.3647 3.11307,0.9341 4.66962,2.3347 1.55653,1.4007 3.11304,0.9019 4.66957,2.3348 1.55653,1.433 3.11309,0.8731 4.66962,2.3348 1.55653,1.4617 3.11303,0.8481 4.66956,2.3348 1.55656,1.4868 3.11309,0.8268 4.66962,2.3348 1.55653,1.508 3.11309,0.8093 4.66962,2.3348 1.55651,1.5255 3.11304,0.7957 4.66957,2.3348 1.55655,1.5391 3.11308,0.786 4.66959,2.3348 1.55653,1.5488 3.11306,0.7802 4.66962,2.3348 1.55653,1.5546 3.11306,0.7783 4.66956,2.3348 1.55659,1.5565 3.11309,0.7803 4.66962,2.3348 1.55653,1.5545 3.11304,0.7863 4.66962,2.3348 1.55653,1.5486 3.11304,0.7961 4.66957,2.3348 1.55653,1.5387 3.11308,0.8099 4.66961,2.3348 1.55651,1.5249 3.11304,0.8275 4.6696,2.3348 1.55653,1.5073 3.11306,0.8489 4.66959,2.3348 1.5565,1.4859 3.11309,0.874 4.66959,2.3348 1.55653,1.4608 3.11306,0.9029 4.66957,2.3348 1.55658,1.4319 3.11309,0.9354 4.66962,2.3348 1.55653,1.3994 3.11306,0.9714 4.66961,2.3348 1.55654,1.3634 3.11304,1.0108 4.66957,2.3348 1.55656,1.324 3.11309,1.0536 4.66962,2.3348 1.55653,1.2812 3.11303,1.0996 4.66962,2.3348 1.5565,1.2352 3.11303,1.1487 4.66956,2.3348 1.55651,1.1861 3.11309,1.2009 4.6696,2.3348 1.55653,1.1339 3.11306,1.2558 4.66961,2.3348 1.55654,1.0789 3.11307,1.3135 4.66957,2.3348 1.55653,1.0212 3.11309,1.3738 4.66962,2.3348 1.55653,0.9609 3.11303,1.4366 4.66957,2.3348 1.55658,0.8982 3.11308,1.5015 4.66961,2.3348 1.55653,0.8332 3.11309,1.5686 4.66962,2.3348 1.55651,0.7661 3.11304,1.6377 4.66957,2.3348 1.55656,0.6971 3.11309,1.7084 4.66962,2.3348 1.5565,0.6263 3.11303,1.7808 4.66959,2.3347 1.55653,0.554 3.11306,1.8547 4.66957,2.3349 1.55653,0.4802 3.11308,1.9295 4.66961,2.3348 1.55653,0.4054 3.11307,2.0055 4.66962,2.3348 1.55653,0.3294 3.11304,2.0823 4.66957,2.3348 1.55653,0.2521 3.11309,2.1599 4.66962,2.3348 1.55653,0.175 3.11303,2.2378 4.66956,2.3348 1.55656,0.097 3.11309,2.3159 4.66962,2.3348 1.55651,0.016 3.11309,2.3941 4.66959,2.3348 1.55653,-0.059 3.11306,2.4721 4.6696,2.3347 1.55655,-0.1373 3.11308,2.5499 4.66959,2.3349 1.55653,-0.2154 3.11306,2.627 4.66962,2.3348 1.55653,-0.2921 3.11303,2.7035 4.66956,2.3348 1.55656,-0.369 3.11309,2.7789 4.6696,2.3348 1.5566,-0.4442 3.1131,2.8533 4.6696,2.3347 1.5565,-0.5185 3.1131,2.9265 4.6696,2.3348 1.5565,-0.5915 3.1131,2.998 4.6696,2.3349 1.5565,-0.6632 3.1131,3.0678 4.6696,2.3348 1.5565,-0.7331 3.1131,3.1359 4.6696,2.3347 1.5565,-0.8011 3.1131,3.202 4.6696,2.3348 1.5565,-0.8671 3.1131,3.2658 4.6696,2.3348 1.5565,-0.9309 3.1131,3.3273 4.6696,2.3348 1.5565,-0.9924 3.113,3.3863 4.6696,2.3348 1.5565,-1.0514 3.113,3.4426 4.6696,2.3348 1.5565,-1.1077 3.1131,3.4961 4.6696,2.3348 1.5565,-1.1613 3.113,3.5467 4.6696,2.3348 1.5565,-1.2118 3.113,3.5942 4.6696,2.3349 1.5565,-1.2595 3.1131,3.6385 4.6696,2.3347 1.5565,-1.3037 3.113,3.6796 4.6696,2.3348 1.5565,-1.3448 3.113,3.7173 4.6695,2.3348 1.5566,-1.3825 3.1131,3.7515 4.6697,2.3348 1.5565,-1.4167 3.113,3.7821 4.6695,2.3348 1.5566,-1.4473 3.1131,3.8091 4.6697,2.3348 1.5565,-1.4742 3.113,3.8323 4.6696,2.3348 1.5565,-1.4975 3.113,3.8517 4.6695,2.3348 1.5566,-1.5169 3.1131,3.8673 4.6696,2.3348 1.5566,-1.5325 3.1131,3.8791 4.6696,2.3348 1.5566,-1.5443 3.1131,3.8869 4.6696,2.3348 1.5565,-1.5521 3.1131,3.8908 4.6696,2.3348 1.5566,-1.556 3.1131,3.8908 4.6697,2.3348 1.5565,-1.5561 3.113,3.8869 4.6695,2.3348 1.5565,-1.5521 3.1131,3.879 4.6696,2.3348 1.5565,-1.5443 3.1131,3.8673 4.6696,2.3348 1.5566,-1.5325 3.1131,3.8517 4.6696,2.3348 1.5565,-1.5169 3.1131,3.8323 4.6696,2.3348 1.5565,-1.4975 3.1131,3.809 4.6696,2.3348 1.5566,-1.4742 3.1131,3.7821 4.6696,2.3348 1.5565,-1.4473 3.1131,3.7515 4.6696,2.3348 1.5565,-1.4167 3.1131,3.7173 4.6696,2.3348 1.5565,-1.3825 3.1131,3.6796 4.6696,2.3348 1.5565,-1.3449 3.113,3.6386 4.6696,2.3348 1.5565,-1.3038 3.1131,3.5942 4.6696,2.3348 1.5565,-1.2594 3.1131,3.5467 4.6696,2.3348 1.5565,-1.2119 3.113,3.4961 4.6696,2.3348 1.5565,-1.1613 3.1131,3.4425 4.6696,2.3348 1.5565,-1.1078 3.113,3.3862 4.6696,2.3348 1.5565,-1.0515 3.113,3.3273 4.6695,2.3348 1.5566,-0.9925 3.1131,3.2658 4.6697,2.3348 1.5565,-0.931 3.113,3.2019 4.6696,2.3348 1.5565,-0.8672 3.113,3.1359 4.6695,2.3348 1.5566,-0.8012 3.1131,3.0679 4.6697,2.3348 1.5565,-0.7331 3.113,2.998 4.6696,2.3348 1.5565,-0.6632 3.113,2.9264 4.6695,2.3348 1.5566,-0.5916 3.1131,2.8533 4.6696,2.3348 1.5566,-0.5186 3.1131,2.7789 4.6696,2.3348 1.5566,-0.4442 3.1131,2.7035 4.6696,2.3348 1.5566,-0.3689 3.1131,2.627 4.6696,2.3348 1.5566,-0.2921 3.1131,2.5498 4.6696,2.3348 1.5566,-0.2154 3.1131,2.4721 4.6696,2.3347 1.5565,-0.1373 3.1131,2.3942 4.6696,2.3348 1.5566,-0.059 3.1131,2.316 4.6696,2.3349 1.5566,0.016 3.1131,2.2377 4.6696,2.3348 1.5565,0.097 3.1131,2.1598 4.6696,2.3347 1.5566,0.1751 3.1131,2.0824 4.6696,2.3348 1.5565,0.2524 3.1131,2.0056 4.6696,2.3348 1.5565,0.329 3.113,1.9296 4.6696,2.3348 1.5565,0.4054 3.1131,1.8546 4.6696,2.3349 1.5565,0.4801 3.1131,1.7808 4.6696,2.3347 1.5565,0.554 3.1131,1.7085 4.6696,2.3348 1.5565,0.6264 3.1131,1.6377 4.6696,2.3349 1.5565,0.6971 3.113,1.5686 4.6696,2.3347 1.5565,0.7662 3.1131,1.5016 4.6696,2.3348 1.5565,0.8333 3.113,1.4366 4.6696,2.3348 1.5565,0.8983 3.113,1.3739 4.6696,2.3348 1.5565,0.961 3.113,1.3136 4.6696,2.3348 1.5565,1.0213 3.113,1.2559 4.6696,2.3349 1.5565,1.0789 3.113,1.2008 4.6696,2.3347 1.5565,1.134 3.113,1.1488 4.6696,2.3348 1.5565,1.1861 3.1131,1.0996 4.6696,2.3348 1.5565,1.2352 3.113,1.0536 4.6695,2.3348 1.5566,1.2813 3.1131,1.0108 4.6696,2.3348 1.5566,1.324 3.1131,0.9714 4.6697,2.3348 1.5565,1.3635 3.113,0.9354 4.6695,2.3348 1.5566,1.3995 3.1131,0.9029 4.6696,2.3348 1.5565,1.4319 3.1131,0.8741 4.6696,2.3348 1.5566,1.4607 3.1131,0.8489 4.6696,2.3348 1.5565,1.4859 3.1131,0.8275 4.6696,2.3348 1.5566,1.5073 3.1131,0.8099 4.6696,2.3348 1.5566,1.5249 3.1131,0.7961 4.6696,2.3348 1.5565,1.5387 3.1131,0.7863 4.6696,2.3348 1.5566,1.5485 3.1131,0.7803 4.6696,2.3348 1.5565,1.5545 3.1131,0.7782 4.6696,2.3348 1.5565,1.5565 3.1131,0.7802 4.6696,2.3348 1.5565,1.5546 3.1131,0.786 4.6696,2.3348 1.5565,1.5488 3.1131,0.7957 4.6696,2.3348 1.5565,1.5391 3.113,0.8093 4.6696,2.3348 1.5565,1.5255 3.1131,0.8268 4.6696,2.3348 1.5566,1.508 3.1131,0.8481 4.6696,2.3348 1.5565,1.4867 3.113,0.8731 4.6696,2.3348 1.5565,1.4617 3.113,0.9018 4.6696,2.3348 1.5565,1.433 3.1131,0.9341 4.6696,2.3348 1.5565,1.4006 3.113,0.97 4.6696,2.3348 1.5565,1.3648 3.113,1.0093 4.6696,2.3348 1.5565,1.3254 3.1131,1.052 4.6696,2.3347 1.5565,1.2829 3.113,1.098 4.6695,2.3349 1.5566,1.2368 3.1131,1.1469 4.6697,2.3348 1.5565,1.1878 3.113,1.1989 4.6696,2.3348 1.5565,1.1358 3.113,1.2538 4.6695,2.3348 1.5566,1.0809 3.1131,1.3115 4.6697,2.3348 1.5565,1.0233 3.113,1.3716 4.6696,2.3348 1.5565,0.9631 3.113,1.4343 4.6695,2.3348 1.5565,0.9005 3.1131,1.4992 4.6696,2.3348 1.5566,0.8355 3.1131,1.5662 4.6697,2.3347 1.5565,0.7686 3.113,1.6353 4.6695,2.3349 1.5565,0.6996 3.1131,1.7059 4.6696,2.3348 1.5566,0.6288 3.1131,1.7782 4.6696,2.3348 1.5566,0.5565 3.1131,1.8519 4.6696,2.3348 1.5566,0.4828 3.1131,1.9268 4.6696,2.3347 1.5565,0.408 3.1131,2.0029 4.6696,2.3348 1.5566,0.332 3.1131,2.0797 4.6696,2.3349 1.5565,0.2552 3.1131,2.1571 4.6696,2.3348 1.5565,0.1774 3.1131,2.235 4.6696,2.3347 1.5565,0.1 3.1131,2.3132 4.6696,2.3349 1.5565,0.021 3.1131,2.3913 4.6697,2.3347 1.5564,-0.057 3.1128,2.4695 4.6695,2.3348 1.5565,-0.1347 3.1131,2.5472 4.6696,2.3349 1.5564,-0.2123 3.1131,2.6243 4.6695,2.3347 1.5567,-0.2895 3.1131,2.7008 4.6696,2.3348 1.5566,-0.3659 3.1131,2.7764 4.6698,2.3348"
         title="-0.5*x"
         id="path10453"
         inkscape:connector-curvature="0" />
      <text
         xml:space="preserve"
         style="font-style:normal;font-weight:normal;font-size:62.41691971px;font-family:'Bitstream Vera Sans';fill:#000000;fill-opacity:1;stroke:none"
         x="997.41663"
         y="1438.3479"
         id="text11079"
         transform="matrix(0.93816039,-0.34620093,0.34620093,0.93816039,0,0)"><tspan
           sodipodi:role="line"
           id="tspan11081"
           x="997.41663"
           y="1438.3479"
           style="font-style:normal;font-size:62.41691971px">a=0,5</tspan></text>
      <text
         xml:space="preserve"
         style="font-style:normal;font-weight:normal;font-size:62.41691971px;font-family:'Bitstream Vera Sans';fill:#000000;fill-opacity:1;stroke:none"
         x="460.49341"
         y="1615.5347"
         id="text11083"
         transform="matrix(0.71514278,-0.6989784,0.6989784,0.71514278,0,0)"><tspan
           sodipodi:role="line"
           id="tspan11085"
           x="460.49341"
           y="1615.5347"
           style="font-size:62.41691971px">a=1</tspan></text>
      <text
         xml:space="preserve"
         style="font-style:normal;font-weight:normal;font-size:62.41691971px;font-family:'Bitstream Vera Sans';fill:#000000;fill-opacity:1;stroke:none"
         x="-42.953739"
         y="1529.0746"
         id="text11087"
         transform="matrix(0.50141732,-0.86520557,0.86520557,0.50141732,0,0)"><tspan
           sodipodi:role="line"
           id="tspan11089"
           x="-42.953739"
           y="1529.0746">a=2</tspan></text>
      <text
         xml:space="preserve"
         style="font-style:normal;font-weight:normal;font-size:83.22255707px;font-family:'Bitstream Vera Sans';fill:#000000;fill-opacity:1;stroke:none"
         x="-272.69464"
         y="1445.8359"
         id="text11091"
         transform="matrix(0.37403731,-0.92741366,0.92741366,0.37403731,0,0)"><tspan
           sodipodi:role="line"
           id="tspan11093"
           x="-272.69464"
           y="1445.8359"
           style="font-size:62.41691971px">a=3</tspan></text>
      <text
         xml:space="preserve"
         style="font-style:normal;font-weight:normal;font-size:62.41691971px;font-family:'Bitstream Vera Sans';fill:#000000;fill-opacity:1;stroke:none"
         x="1792.4882"
         y="747.68372"
         id="text11079-6"
         transform="matrix(0.93758715,0.3477504,-0.3477504,0.93758715,0,0)"><tspan
           sodipodi:role="line"
           id="tspan11081-4"
           x="1792.4882"
           y="747.68372"
           style="font-style:normal;font-size:62.41691971px">a=-0,5</tspan></text>
      <text
         xml:space="preserve"
         style="font-style:normal;font-weight:normal;font-size:62.41691971px;font-family:'Bitstream Vera Sans';fill:#000000;fill-opacity:1;stroke:none"
         x="2125.0803"
         y="214.90128"
         id="text11083-2"
         transform="matrix(0.7649613,0.64407624,-0.64407624,0.7649613,0,0)"><tspan
           sodipodi:role="line"
           id="tspan11085-9"
           x="2125.0803"
           y="214.90128"
           style="font-size:62.41691971px">a=-1</tspan></text>
      <text
         xml:space="preserve"
         style="font-style:normal;font-weight:normal;font-size:62.41691971px;font-family:'Bitstream Vera Sans';fill:#000000;fill-opacity:1;stroke:none"
         x="2050.312"
         y="-409.94205"
         id="text11087-6"
         transform="matrix(0.47963221,0.87746962,-0.87746962,0.47963221,0,0)"><tspan
           sodipodi:role="line"
           id="tspan11089-9"
           x="2050.312"
           y="-409.94205">a=-2</tspan></text>
      <text
         xml:space="preserve"
         style="font-style:normal;font-weight:normal;font-size:83.22255707px;font-family:'Bitstream Vera Sans';fill:#000000;fill-opacity:1;stroke:none"
         x="1992.1381"
         y="-527.91534"
         id="text11091-9"
         transform="matrix(0.39194532,0.91998851,-0.91998851,0.39194532,0,0)"><tspan
           sodipodi:role="line"
           id="tspan11093-9"
           x="1992.1381"
           y="-527.91534"
           style="font-size:62.41691971px">a=-3</tspan></text>
    </g>
    <text
       id="text6263-4"
       y="312.63681"
       x="517.75739"
       style="font-style:normal;font-weight:normal;font-size:40px;font-family:'Bitstream Vera Sans';fill:#000000;fill-opacity:1;stroke:none"
       xml:space="preserve"><tspan
         style="font-style:italic"
         y="312.63681"
         x="517.75739"
         sodipodi:role="line"
         id="tspan11075">x</tspan></text>
  </g>
</svg>
